<mxfile host="Electron" modified="2024-09-29T10:06:54.789Z" agent="Mozilla/5.0 (Windows NT 10.0; Win64; x64) AppleWebKit/537.36 (KHTML, like Gecko) draw.io/24.2.5 Chrome/120.0.6099.109 Electron/28.1.0 Safari/537.36" etag="FoPan6bhxGRyRdWyfaCq" version="24.2.5" type="device">
  <diagram name="第 1 页" id="T55oCx6T3UNSbYCQgQW6">
    <mxGraphModel dx="1195" dy="697" grid="1" gridSize="10" guides="1" tooltips="1" connect="1" arrows="1" fold="1" page="1" pageScale="1" pageWidth="827" pageHeight="1169" math="0" shadow="0">
      <root>
        <mxCell id="0" />
        <mxCell id="1" parent="0" />
        <mxCell id="wvYD6DcHS2W4OUJYqL-E-3" value="" style="group" parent="1" vertex="1" connectable="0">
          <mxGeometry x="120" y="400" width="120" height="120" as="geometry" />
        </mxCell>
        <mxCell id="wvYD6DcHS2W4OUJYqL-E-1" value="burning conditions wait" style="ellipse;whiteSpace=wrap;html=1;aspect=fixed;" parent="wvYD6DcHS2W4OUJYqL-E-3" vertex="1">
          <mxGeometry width="120" height="120" as="geometry" />
        </mxCell>
        <mxCell id="wvYD6DcHS2W4OUJYqL-E-2" value="" style="endArrow=none;html=1;rounded=0;strokeWidth=3;" parent="wvYD6DcHS2W4OUJYqL-E-3" edge="1">
          <mxGeometry width="50" height="50" relative="1" as="geometry">
            <mxPoint x="120" y="120" as="sourcePoint" />
            <mxPoint x="90" y="90" as="targetPoint" />
          </mxGeometry>
        </mxCell>
        <mxCell id="wvYD6DcHS2W4OUJYqL-E-20" value="" style="edgeStyle=orthogonalEdgeStyle;rounded=0;orthogonalLoop=1;jettySize=auto;html=1;" parent="1" source="wvYD6DcHS2W4OUJYqL-E-4" target="wvYD6DcHS2W4OUJYqL-E-14" edge="1">
          <mxGeometry relative="1" as="geometry" />
        </mxCell>
        <mxCell id="wvYD6DcHS2W4OUJYqL-E-4" value="&lt;font face=&quot;Times New Roman&quot;&gt;ignite and burn&lt;/font&gt;" style="whiteSpace=wrap;html=1;aspect=fixed;" parent="1" vertex="1">
          <mxGeometry x="320" y="400" width="120" height="120" as="geometry" />
        </mxCell>
        <mxCell id="wvYD6DcHS2W4OUJYqL-E-15" value="" style="group" parent="1" vertex="1" connectable="0">
          <mxGeometry x="320" y="600" width="120" height="120" as="geometry" />
        </mxCell>
        <mxCell id="wvYD6DcHS2W4OUJYqL-E-14" value="burning with changed outer conditions&lt;div&gt;&lt;br&gt;&lt;/div&gt;&lt;div&gt;&lt;br&gt;&lt;/div&gt;&lt;div&gt;&lt;br&gt;&lt;/div&gt;" style="whiteSpace=wrap;html=1;aspect=fixed;" parent="wvYD6DcHS2W4OUJYqL-E-15" vertex="1">
          <mxGeometry width="120" height="120" as="geometry" />
        </mxCell>
        <mxCell id="wvYD6DcHS2W4OUJYqL-E-13" value="" style="shape=image;verticalLabelPosition=bottom;labelBackgroundColor=default;verticalAlign=top;aspect=fixed;imageAspect=0;image=data:image/png,iVBORw0KGgoAAAANSUhEUgAAA2EAAAGHCAMAAAAOUKq7AAAAAXNSR0IArs4c6QAAAARnQU1BAACxjwv8YQUAAAMAUExURf///wAAAPf3997m3ggQEAAIAFpaUt7W1u/v78XFxc7O1oSEhCEhGUpSUlpaY3tzezExMRAQGbWtrSkpIZylnKWtrTE6OoSEjLW1vc7OxTpCOpyUnGNrY5SUjEpCSs5KjM5KWs5KvWtzc84Z784ZEIxK74xKEKXenIwZMTFKa/fWxc5K785KEFIZEKWEzs57EJR7EFrvpTp7pRDvpRnvEFrFpRB7pRDFpRnFEGt7zhB7Yxl7EM4ZMUIZ5ggZ5kIZrQgZrYxKMWucnKXevWN7nFrv5s57Qjp75hDv5lrvEM7vEJR7QpTvEFoZWlrF5hB75hDF5lrFEM7FEJTFEFp7EBAZWs5KMVIZMZwZjKWt5qWE75wZWq3v5s6cEJScEJwZvTFKGXsZjHsZWq3O5nsZvUJK5ghK5kJKrQhKrb0ZjL2EnL0ZWr0ZvXvvpTqcpTHvpRnvMSnvY3vFpRCcpTHFpRnFMSnFY2t77xCcYxl7MWuczjF7YxmcEAjvYwjFYxBKENZ7a1pKENZ7zq17axBKWmMZ5ikZ5mMZrSkZrVqUc5xKjJxKWpxKvVqUUntKjHtKWntKvc7vc3vv5lrvc86cQjqc5jHv5lrvMc7vMZScQpTvMZTvc5wZ79bvpVoZe3vF5hCc5jHF5lrFMc7FMZTFMc7Fc1rFc5TFc1p7MRAZe5wZEFqcEDEZWs7vUlrvUpTvUnsZ79bOpc7FUlrFUpTFUnsZEGuc7zGcYxmcMWNK5ilK5mNKrSlKrd4ZjN6EnN4ZWt4ZvdatzhBKMdaca1pKMfdajNatnISca/daOvcZjPcZOvecjPecOtZ7762ca5x7nBBKe/daY/daEPcZY/cZEPecY/ecEFqcMTEZe/dC5vcQ5vdCtfcQtfdz5vdztffejFpCc/feOvfeY/feENat7/el5veltTEQEFpaexAQMdbmxc7v5hApMQgpEPfO9zEQOoR7pff/OoRzY/f/vRAAId7O787O797v94SEaxkQAN733tbFxRkQEBAAAO///wAAADO9NKoAAAEAdFJOU////////////////////////////////////////////////////////////////////////////////////////////////////////////////////////////////////////////////////////////////////////////////////////////////////////////////////////////////////////////////////////////////////////////////////////////////////////////////////////////////////////////////////wBT9wclAAAACXBIWXMAABcRAAAXEQHKJvM/AAA3HUlEQVR4Xu2dXVOjzPP3BRRRUMDICoIc7Jv6vf+ju2or+z/Y0rq0Vrfub/dMEswjJEBH0x93FcgDMExPP0zPzJmiKIqiKIqiKIqiKIqiKIqiKIqiKIqiKIqiKIqiKIqiKIqiKMrXI6vCwG4qitI3QeREl3ZbUZS+CRInvbbbiqL0DXSYk9ttRVH6Bjos8uy2oih9E0w/Eo10KMpQQIephCnKYHgTJy3stqIofQMdppEORRmMYOIkGulQlIFwocMm6ocpylAEkZMErt1RFKVnKJaoVqKiDAV02NRTHaYow0B+mGb+KspgcI+z6jBFGYjLSP0wRRmO3FEdpijDEUycqeowRRkI14uc/2mPs6IMxVWqOkxRhkNzOhRlSDSnQ1GGRHWYogwI5XSoDlOUwVAdpigDojpMUQYlmKoOU5ThCP7nRCphijIULxMdvaIow+EmzlQlTFGGwpvAD7PbiqL0jcYSFWVI/iMdppEORRkInZFUUYbkKlUdpijD8Td1Ip3NTVGGgufpsNuKovTNneNMXuy2oih9k6kOU5QBIStRY4mKMhSkw1TCFGUo4IephCnKYFyRH6bRekUZiAISpgKmKL3jeZeel5WV40QlyP6+eJ6rsqYoB+N6efizqpMkmTw7cybYr+P8qrDvUhSlM66bh3UdpVaqVvlIo7oqC9VlitKVwCviZPphRekTb/bvjOckzj3th1aUtgRFHtdWfIg0SqL6xq+q2Cc/LM+q2vf9pKncnh/D7FJ1maLsJsjqqZUbkP7wX++8F+tvNTN/X4o89OvIvg9EfqYypijbgW344Vjj8OMRTtan7i+SsP/sNvNCAca5lD3XpVqLirKR4CqeW37RDaTLHp/jRc5kNacjyMPEfspJVJEpynq8cOZ8pXVYrB2kUjxvyK2HkNUz4awzHaSpKEu43oM19tKk2tjLRStDbMxLLObhkUmokyoqShNvZue93WZbUnthJUZbRmAGpW8VWRKqHlOUGZeh1V+/b6/sofUUqXO+PY2jiN/NVyWhBj0UBbi5VTyp/7TLuCMdtmv0yvVMXKNqu7gqyinw8sfI13uV77brePSK3d5MMJPZqNTBZMppE4QTloW0aiUL12nLEZiez1/rJLk9oCinSG6jf9VVu7iE237e+szI2IeGFZWTpfhpjLmb1oqmyzrObmn8samqMeUk+VeaAP17+ySMjus4BxWPKHv2dRSZcnr8NVZc6n/KM9xBFx1G5OYkUdnhM4ryDQisAvO7mXCd1w8LShNJqVWNKaeE1S3JfUfd8tJ9/TDvzzmdKgpVjSmnQlByhCPtnnUBHTbtpMMIG7BUNaacCN7+Nb6rH2bwbjni8UODisopkHEQPa32SRss3jv6YRZzzg9NVVS+PUHIFmKU2f1u7D3n72VFZ3VqVWPK9+blD9f0fXuoXpJ1Y5xbkRnf78nuKsp3pDAx+tDuduYOamjfmGDB7t9HbHcV5fth3KFk/6BeDvW3d9Q9iOnse+tPRTlyvFueQyo+INzAa2Du37FlJVydMeU7UnAvc1ra3b2Aldi9P6zBtenp3ttKVZSjxeiP34fpD+iw/3XJY1zB5Zjis8Y7lO9GzqG8+q/d3RPosJ2zCOzA9BbEB36LohwVgZlpNN7fhTKwH2a39yVXZ0z5bhRsm+3Zy9ykl3WcAw7bvx9+NYpyHJhesOja7h7AgbFEi2cEXrWY8j0wAlb34fnkh/thTEhX9K7jMpXvgBmqUtm9w+hHh4GcBmamB/uFiiJNUJJ8HdYLtqAXP4wxivWPJtsrXxszFiy9s7uH0psOg4jxMoC1Tm+vfGVM2C7tLWzXlx9G/OUZPCLNUlS+LkaD1b/s7uFAh/10+9I6l3x1B+QhK4osVsB69HXgh/U4+uSafbFE149QvibFDxawvqw6AjqsT4E1WYpJDx11ijI6xgfrVcBIh/m9hv84m0sNReULYkzEQwaDrYFjiXa7H+5VxJSviGuWF+p7IFZ//WFz7ljE1BdTvhY5BxF6H4bVY3/YHJ4iR7WY8pVwPR4h0v9Q4j77w+Zw1kmiSYrK18FosJ4ypZoMocPOzl7pap/v7Z6iHDvFQBqM/bA+o/UWl9dWT9VQVL4GJoo4gAYbIpZo4Hne1BdTvgRmlP4w0zkNEEs08OwdySCtgqL0Cke/h9FgQ/lhhJl0W0VMOXZYg/U1HGyFQWKJBm4Z1BdTjhwTph8sLDecDrNaTH0x5ah5GSSTY8FgfhhhsjtUxJTjxaRKDejMDKnDZlpMM+2VY2VoDTawDlMtphw33g0J2KDhuGF1mJ3lTUVMOUqGyab/zICxRIOKmHKsDJjJsWBoHWZHPQ+QmaUohxGMoMEG98MIFrFbFTHlyOCKWQ1dMaHDbodUYcBosaGbCkXpBk+d/fhi9wYDOmzwus8ipiuzKEcFD2IcwXuBDhteu7jkUaa6MotyPBgBG9hBIsbQYWdnHg0gHWSUjKLswxMJ2GSMGjmODjNL4vqDBi0VpTXlBepjDwtctmAcHWbbDI3ZK0dBSAL2e5zp0EbRYcRYjqWi7IKn9Oxt+aIdjKXDbHLH4L0PirILnvWmv+WLdjCaDrNzguuYZ0UYrogfvc88uonxdJjJAvvQbjFFlOAntfRjVfoxdRi0Mw9l0TUyFUECngVtRG8lH1OcecoRzbNXBOGImz9iKz+mDrOzKI55e4ryifw3auB0zEZ+RD+MMOnMKmKKDNk76t/kr90bhXF12FnAItbjuraK0p4CAvYxqgYbXYeZPPtzjdkrArw8ovJFo2qw0XUYtBglAUeaZ6+MjhnTPHbrPrYOg6YmEdOhLMrYBDyv1Mi1XUCHnZ1dPeNGRxk4oCgLOG1v/EB27jiV3RwNk2evAUVlTHgxoDGGXC4BHTZ+wnv4hpsdLTFMUc7Oyg8ZASM/TCDfnWP2us6zMho8BHjoWdXWAh0m0DvF6c268JEyFpcUp38WyTqHDvtjN8eEY/aaoaiMg2nRZYZ1CMQSGdbatd1RlCEx+fSDrcG3Hegwmel4Ido65FkZhXuqaxKmGoGKLtQ19YduWzMUlcHhQVOPUo354GuvbOQfBxRFTFTllOB8+khsmUiR/jADRzs0fUoZFrMQulw1gx/mS+lPk6Eoo0GVE4Fnh0kFTSVBHWYNZF9FTBkMs/DP6ImBDSgvUUzCzKwCOk2pMhQu1zBBG5F1mKAGNfev4zGVgcgoG9F5k5xCcPzxYU2MhDk6h6IyCDy7r3B+HnSYWKRjLmHJpd1XlB4x00yDcdaAWA90WDL4QpsbebUlIJL0rHxzTLIUkNZhgnkVVASUoKgTvCn9wwLmJ6hikpGO3HFe7aYAVAahpk8pQ5BR21293MjrMNlIRxr8oymAhIYWKN8WM4V74D46zpuwDhOUMPLDvLMXyu0Yexo75XtjliEJODdPVIfBRJPWYTaoKhjSVL4d89XqaEPUD3sSlTCaYIvCiLBVNdqh9IcJI5Jz70nrMHk/jAP1XCCa26H0REZLofPMUjTRr7QfJhut/2AJ+48zoCWbGuUbwW6HHfdIrbhkxcL5BVUH3b1xv9gxVVdM6QPvB7XXNjoNP0jUD7txLgRTSkwskeHei1hdMeVgeAWIefcPSZikDqtFT/8Td28ljOftOJdsbJTvAQ8JW/SvhsJ+mO+kgjoMZWH8MGAK5s7uKcp+mDDi3PUJYDEK6zCpeeQICJX1w0DA7qlGO5SD4KXQFz0/tOqqqB8Gk1U2Wj/zwwD3imm0QzkE9ucnDX9eOpYIP0xQwBexRIb1u0Y7lP0JeCHZpkQdgR8mKOCNWCJh1lEX1KnKF4dnlvo8LQck7IRjiaTDGhLGRqtseShfGo6WfW6ij8APExw3AgmbxxIZTticqogpe1GSE7Y0Qb20H3YjOhHPkh8GOLdD12RR9uEvVZ7lCepRx9QPa8LB1lgDikpnrmmcYb086wxZiZI6TDSW+K+Z0zGDox2aZq90heNkq/kTR+CHyfU4UxrHZz8MuOSKRZJlonxFNi3DJx9LFI50LPlhoODVaJYFT1G2ckcC5q92psr7YeI5HSuFwrkdPHxOUVqS/95QaagVF9Rh/6DDhMc4rwlq0OQCzq3dUZTdcFfz2qTWV3k/TFDCyDddp6tYxDTaobTFCNjadS6PwA8TrMkU51knYdzxrK6Y0hZqqjdU5Ad5P0x2zt+VWCLDbZIuLKa0g3M5Nsw3cwQ6TNoPW5tLz7kdfzTNXmlBThos2dAelyfth3Es0W4vwbkdgh0JypeBpkTcPDpeWIcdQSxxg4S5Eyo2yYWflK+BWUl2Y2P8JO+HCc6X+LrJDwPXPLO/RjuU7QS8ds/mtdDVD9sYzmAR02iHsh3oqK3VRHq+RHk/bPOaKzqbvbIT9te3Te5y8jpsW3ccCkc7npVt3E1RRZJtEgQdJjnprrAOo/Fh2+KF1CumIqZsxGtMUL8BjSVuKx7ueJ5I6njlqNmSyzHjtGOJZAZuLR9uozTaoayHnbAHu7OBh5P3w7a3L2ZSAbujKE3yNpO6HEEsUXYE5tsOBcV2gGAjoBwtBc/LsavH9FZeh8lK2PkOCaOVrp2pLqOuLGOSpXapJ5oEWHquKcHTr5lragXuePbXDv1RThge4bR7rR5aTEw4lpgK6oddsUSGlwzdlDmtnCrkwy/PProGEkRhP0wwu/Yf2peNeYkLTG6H3VEUIn9DpVgz8c0y/8GWFPXDbiRPzxq8hXLi5kpHsigL2D1voxyoS1XYD3sTTCm5RTHt1mHcDm1PjVFOCw9tc7tsH4p0CMcSJXUY2cgtJOzsTmezV5pwxmqrPhyXZFHS/pFdxxkF1cIPA2wnaq+YYuiQh8CtuOTq4PLrh62fp2MJnpNcp9pWmPIcteHxP7u3A+FovXB/GKmmVjrMLKMuGnVVjgUOI0aXdm8X1IoLShj1hwmentZeadnRdcWumPaKKZzL0d6eoTHQkgOgRP0wXmZldd769VBJbR3MqpwEJlmqfewCvv6FpISJ6jBa3ahVLJFpHz9SvjEc9Oow2oJy62X9MMn+MJRWu1giQ3FX0eZIkYcFrOpgyqBhFp0UUDSng73Q9oVlDPC2VqXyHTFDwrpUgVJ8no5zwdO3ya1vwFNtaw7wCXNHq4StXcRoI6TDJK1E+f6wDhJ2lpGI6YjnU8X1aCLoqJtKILNSOKdDtj+sgx8G2AqPVYudJmZIWMf6SgEyQedduD+smx8GKPqoWuxU4Yf/ZHfa8iQcHoMOE5Swjn4Y4EROjdmfJJyN2HnxYdJh93Zbglp08ExXPwyYOSglXVdFBl6Gr/sC+pSpIDl8FypBdiacbn4YuKJ5lH/ovB2nBsfp95jygnSYpFtRi87j1NkPIzh9SheMODG8Rzz1jz20AarLCY9x7u6HEdQqqSt2WvDwpb3MLeFY4hfrDzOYoK1kP70yNqgpexp78n6YZFXdxw8DnD6l83acDnady736QUmH/bTbAny1/jALe72JZiieCjkJ2PZFjDZyBDpM0A3czw8D9yRiLWbLU74DB/XQCOuwL+mHERrtOB1oWs39oxWn7Yf93M8PI6jUI8mMTmUsOIy4d2tKbbGkhInqMJ5pa880Xl4womOatfIV4VwO3+5050FYwmT9MGqd9tRhRsSSfT+tfBXKCzzn7slSc6RjibKZv/v7YYAaJ50a57vDGmz/SmLyhTunC/eIuITt64cBI2J2R/mW8NyIHWaWWoV02O5FkAbDFfXD/sFK3NcPI9gF1qlxvjGcW/B2UEBLXodJxrwpIHhAvzGtXONclGoofle6zo24DtJhsnmJgqennsRDdJh9AoJmrjIgLregh46ugg6TrCFB7VzIxRI5hfegaKCZfUoHi31LbDai3dsXiqYJSlhx7vyWGx9GOuz5IAkzK9BqtONbYiJZB6bGSa+B6aWCOR0uLahyQCyRMFPj7Jd1rRw1OXd4HvpkaTlaUR32LHn6F/LDDpMwm7SmE7x9O3ixnT3z6RuQDpNMqvDeJE9POqzTDMlrocWgReecVAaAFxbuYYYLcR12LjlvE/lhjwdLGGsxXR/ze1GQifh+uAPj/ifvhwmuehdMezC0NUPxG+L9wCPtpR+JOnQEdZh7/eHc2G0BSIdFPQg4m+yS/fZKv7hs+b/avYPg8RuyOkzOSuRY4mH9YRYej6npU98Gfp71P7t3EDQLnKgflkqaVxRLfO7DSOWua12877tQfpCA9VMvqWoI+2GCEtabDjMzOaiIfQ94RFhf1VLYD6P+sEgu54jk4r2fQAuvLKbrY34DXCNgfQmFuB/25kzldNj/TfuJdBA8+5RmKH55ghjP0an/s7sHIx5LpHC5WMNPOqy3nMKMxurpHIpfHV6VoCcfjDgCP+zwpIq9CSb96TBrKOpMwF8bXiPssUezivIRJP2wv6lkYjrpsLQ/FcpPx3dVi31ZXF5hpVe36Qj6w4RjiX2mlHCe/U+VsC9LAafJSXtdsVI8lpg6k0u7PT4cY+9RwkwqgK7y/FX5R92afT8/1AlhP+xZcHzYFO1LnyqUe541z/6L4h6wwspmQmEd9iF5etJhSa9GHadka57914Tj9L1PgEmzCMjqMLnTc15izyVqRj2oFvt6mI6w/lcPltZhkDC50/czAvMzV6rFviYsYLd9azCOMAv7YZFYpIN12G3fjdZfOHcqYl8No8F6GCy4AlmJckrEhQ4T7g/rf1kMNhQlTW+lO5zKMchSOpUjOWEh6TA5CeNY4gALWebPAzWHylCYxO1BVM0rmltBv7x4ltZhQwxNpsVrdVWWLwRP3DbQtILQjm+Cw5ouU8HcevbDBpkmhG0OFbGvAgvYUGPtheethx8mmfmLku0/PEuw36wi9jVgARtMCtDaSi6kLOyHoWgH8MOASe4QnEZLac0da7DBhEA+p0NSwuDfDjRFFK/K4jzZPeV4GVaDGT9MMNIBHSZnJZr+MLvTN7wyTvpg95RjhTXYkGvYkR8m2NKSHyZnStFcU8NYiYC1WKqT4xw3VAWGXSQSOuxctj9sIje3xWCxRMaskKmG4jHj8boeg67CKh1LfJYcgTlMTsccKGjVYkfNHQekhl3mmHpuJP2wN8ke54FyOuYYJ1q12LGSUwrp0OuIS+uw4UINLRgqp2MOJ+OkpVgsR9kGzxkwtIDx7C1Dn2MLwv1hE0jYoNWfRUwHPR8l2fsYAibdH3YtmlvPOR12eyDMRKWCJaxswJjww2uX2HHOBXM6LkV1GIUihvTDCJO1rVrs2Bi8H2yGdE7HuaQOG9wPI1iLaUTxyOBBfKP4R5TTITw+TCwOMMwY5xWMFtMRmceESWobJQAhrcNEx4dRh/7AfhjBWuxRZ7Q/Hl5G6AebUULCBJtXUT+MIx1jqFDWYolqsWPh13gajGcROF0/bCQdpr7YUeFejdHRPAdW4sn6YazDhvfDCF76SLIpU+bk4/SDzThpP2yUWKKhZENRfTF5xosiGoT9sOtvnZfYxPhicqtgKIZ8TB+MENZh3mhKZB0D59Z/hiegUi0mzFiZHAtk+8Nc4bxEFPdoA0BdXl1MV3oWZbRMjgXyftiNbKRjPAEPeHUxweFwyvgajHWY9NorYmmRI+V0zAmMFlNfTIggJl94ZAET12Hi64eN5ocBWjVbtZgUHi/AN7aAHUFeouT6YSPGEhmzDG2imfYCFD+47EevbdI6THT9sBH7wyzGUNTsjvG5ZAETmIb5CPwwMQkbN5ZoyWhhFp27Y2zMjAES+UPysUTB048bS7RojuL4uB5rsFsJD1jaD3sT9cPGjSVa7kjELlTERuSKNVglMvettA47d37/tduj446WW/8Z1mKSa0qdGpwUOsQazW2ADhOe81dw6Re2EgVMcxYx56dG7cehvEBpi9nl0GFObLfHxy0c511OhZIOE0mLNBOJ6fpiY+CWNHLo+d7ujg50mPNqtwWAFhHWYeP7YcS1WV9M0D4/FTzTPyImYNJ+mOtLnn7snI4GvGyEMxU00E+DnMs5urO7ApAOE5wv8QwSJqjDplI6DOe+oUf/LvjoT4GcPd7hFrhsAXTYuWAST5BI67B3KWeI2jYYEGOnyZ0UJpfeiSRjSnjOz5JpctBhsv1hqVTp04oBIA013jEQQWYEzJlKDmeADrsQtFSCWjqno7bbo2MlTDKU+80xg1WA4CKQxlaRtBIhYWJGskhe4hySsJob2Uo7xgbALG+ZTvBL1EqU7Q87O7uR9sPEJjHgGJOZ+EinFugfk+ob3V3jr9xi/IBaUklnW9YPE4wlcskXtiLofMA945bcdNWFZI+MQViHyccSxUqfdBhu3XSMaa59r3jGBaNU3xc0YYLTmZnnLJjTIToCk/0wsSmHjQ4D1Mg5b6E6Y71h5kSMMnq0p67Drt+kY4li7ZvVYeCBG1zNUuwL0wv2wxSuR54AbwlBz1nwAoTn6ZDWYTaMalZ7rlWL9UFQ/m6Wpjc5Ah0meAEFlLmclZhJ3vxCh52d3Wm8oy+8mIpyMdryklbDt9si0HMW9LKhwwTnrSc18mC3R+cBJ593BZp4R5SppXggJjbbCI/TM5bWYYKOkPDaK6TDxLoqqEN0YReaZU81v+NAzHQBzYXpScKkdZhgcruwDiMJE/PDUBceX+w2MLOVOrFqsf0JeDSzM2mqDGE3SF6HCSZVmPZNKmUsgISlzYzUID6n6lFL5mF/bcxYsOfPE96I67BKfM5fYR0mpsDJnvl8cpNC5ZSqxvYhiDmGuDyaWVyHxafsh1H7JhXmcUnClkreJKsKzTr2xbExxMmyCSCuw8hKFNZhUo6QcKRjVYeduWaNMacW9Iy/KCaNY80wBfXDJBsYat+kbn6dDoOpY/I7Iu0Z64ZJ9E3L1dZaXIfhAk7bDxO7+bUShmtiEUtjTfBoT26s62Sd6j95HSbuhwn0QAVc4Bsk7KzgiJjO9NYa104WsH5WevXDJBesE+oP88J/+L3GDzMEFauxJFM11gYbHko4k34VcR2GyxP2w5JALNQh1L5dUqzQJVW1oeQzU2k0274FpQlxbLSqqRWV1mHCftjp6TADSdGmmKGNKWoq8C5sjH5LZOgSJuRJ+2GpYG496zCp0qecjs2BTJcuDY9GJ8nZisnicPwtpUQJn6IShicp6Ie50GGCaZGiOmyjH2aw7ruqsc0UZq6AZGvSAOkw0Zlw5GOJgrcvGWda3x/WIDAGkK4ztgnbybyjX4PGOAuaSZw1JbwG5qn6YTt0GDBqLK3klPwRYye72ZmTQyMwBavY2dmrqA5zXyaSRqqkH7ZThwHvlitRpGpshcx6YDvr7hWaqVtX0Eyk8WGSpr7o6kZHrsOA9cZ2V6TTorCx1hZjwskPE0xqEPfDZOf8PWo/zBAYY0jXj2gQhFwmb20CrS75YaISBh0m6YeJzvnLOiyW0mE/cPI2HpaNSNc6h4chsBGOpN1QVfGZcB6EdZjo2iukwyTHh7VbscCskwqP0RP0Jo4HG+Fom/BC/WFi6+sQR+CHyYXK2A+z26NDT75dLZmltmrf2FlgIxytgz8u+WGJpPoX9sNccR0mJWGkw1qvrGQme3PSE58nx/0Vv1E5PLdPdeHVP8RWsCKE/bDgUdwPs9uj00XCZvn2p+2NvZSmEJIuS0qSH3YjaV5LxxJFo/XSfliXtjXD+4mTnYsqeHrkAki7raFxiXITzemQ98Pe5G5fuj+sk/XixR9cw05zopzAjmN2qo7VhdZekV7H+bT9MMn+sPRXJ/HOfJ5R0UlObr63IDdWcnrbtbJwf5i0DhPuDzuXiyUWeGzHndOxRGEb8tOSsbn+utlDUjgv8YR1mGx/mOjqbVRrut+6HdJ7UZ1M5N71/pgAx8VekVT2wyTXyYYOE1QiXM/kXPdjWT+sC15sOsc+qtNYXt2LYeYR/n5tyjH4YYJV/OxfLbi+EJe+WEYNSdhe6vvqhmuck7w2Fpb4nrheaNqT1M/3tItpHedPS0WMDXSY6CBr6DCxWXe5N1Isp4MkbL+2zbWpis4k/taJVPC/rHwdMESOWlFpP0xUwuCHyXkUon4YtW37dnd7YW3CitFPycozKK73+sz3+FZ36WFeQj6WSCsxSi4LBx0mNr5Qdh1nKvkDxNvMDYzaE0pWn+HIbo3+curDWmCKJYr6YdSSSg6hhb0jZiVypGMqNf41R8kfokDz2IQVnWn87eKKRenbBsQ/sF/Cpdx60VjiEeiwV7s5OqzDGiu9jouHOnSYieo92WY+9b+TIguKn1a80mrf+MYC8THO8LfPJTPdoMPkVOgLSr8+E9Jh3vvhbdvLTMacJPwuwftLOwDMieo+Gj+KJYqOwIwd50Oy/RMdH8Z+mN0eHTp5dbB0Bw8zGfsWs5cG+Uy+kp5WnxGNZgHvEY9GUML+nW5Ox6F+2IwgtP4YVcqvHbz3yhse/+U4790S6DfDfpikDgtgpZ3sGGfuD7uVqpR3z32JdxDa/jFn6n/h8WN5PLG38djjsjPS89YHlawOE85L/H+C7Zv3u78YU5DbPA/n4/FLru0XBPe1NQ8v6l7Tmqk/TFSH+Sc815RsTkfwjsa1NwXq5rUdPuZEVf7FhKzI5uor6jw+ZTtuiWIR1WFkJcrqsN+yOkysx5mi9X/sdi9cVZOZkCXl11neD+I1C9ac1/1HRCXHABIBrAthP+xZLpb4f9BhUynHhSTsZ7/i/ZLNTC3KWfwKQuaVNvUQpFU+QGtHYwB7bcg6cgQ6TDiWKGYlHt7jvI55pgdI4qujjnt4RZzMW4Q6HKalzXEG0f6w11Oe8zeA9S8VS3S5x3mAk3vz6D0az6Q60uBi4BU/o7l4pcPFQKVT28Xn/L1x0l92c3xIh4lZEMPoMCLI5lEPACH7+5+Us7meoMjqhXhFj0MmVuZvwjrsCRL2VXRYsNLOra84rZdep7SK7fM9NU/pBt7qFSwfWLwDb996HaTD0nUn966ysvj8gneVX3mB9+Lx4SAP5z5WHq9tH/NwlppOpO/V8XhlRRbXC9/LX3Nh3qV3vfNq3WJRut6WkiYrcXtD5jUy74OsLIulb3NxPZde4c4frfd3cXXe3bpH2KSbDnNxAUslgqdtzxFkiyjxZdkyvaC1H+aVce0/fIpDB+VstgqvLJ9m2ZVB2Ho+B9Jhayv5jCC+yWb3cXVbJ/Vyim3mxyXOjV98YXlY1z/tO7x6e28X6bC31UKyRt6nMYcuLYdZ+0mdUF3xfNoL+aOwczcVX1FWC3MRTOKy/YMeCLQN/tReD0jipZaECOJkMp0kSzlgeVX95H8VPWc3CP2ojq1oFPVPs7GOe5xnqw7z6mg2uiMISfmnyeceA6+mC5qi+E1XY/gjSurZWjjxznHqVRc/rKyhcp8nzVlYUEk/eJcSCz6S2Vx+ldPyS9vmdFyZB/NWN96dz+IUObeJdr3ssvU0hKY/bNubIQV2EVzXDmd3ok+THpgl9AjKXzbzy09NmYfbU5ppCWvHWT65a+fPxnka+dj8VibFnll91gz6KR3/H/1dD1qlubYgIr8S648Oguy1nuBGrAEL7bW2246i2/wemqV/0QBRq2KgB+LRwjV4iynpaltJ7xzEX86jXfOy/7RopkuzatqLRuXj9g0YFzpPH3dUNsraaq3DyGlk0sXTp/ORMAU/zUumwhatPYyWOix/xz3WNOnrYqwPyRWfJvvA88KFcNdWkLbXyTvyEl0X7Y99nYo5CUtK42y2HfNnQhMCQOKT8mliHryX7liPIKCiX3kLxCeNM5pRqnEbBW67qm7RgKMq4UqqqwzlhuvAd+y4We+qEVwkoh+JD427o170iftSFDBA5q2E85Ym8cbIBp5jFJeUB5bmDaMc+1HCP2jEXd85jx/C1PlBTzzfuhQ4PePNOiz4SyNZrYRB1tIQLQE+0WykcTgJw6cw9KkNh9EXlxmuknVpbdTLFrrkJaICpWHBk9fNKw8NL+NzoRJUQQAZJNkO6rTtqNJ2fhhV9Tj4d1ZAZ8xEgtJRTNn6XKdREKRewvYjOl2KJW7sD8tjdmVsjzTKiYxPupBF6bt4fHUQFPDP6FjlRPiDY9Skxjsn4fgDe2D55PhwSmPmqeVb3McllTGugy+l4tIvUnq9bNOS4QKrhG6lQZr8ifNiduFDgZIpsrKa5WswUVSV/9nX14D2gxUI6ZPEHCJwuw0xwt4T/mTOM8oYVXhbSW9rRYMYZwFGwgI0n/xN9JFFsaCepQuVhjaNjP+XCX8o3GpCGKjNbNfm46FfsDAEqAXWViM30lSJ2ImoBPD48TtsnXDXMrceomDW2sK5ExvIYGOJbtOzQ8xqKskgndB2O6gonxsGwScgS4Rt/1J7AbTwdEO5pM693eQCYqHw6c/VTlvVhdZf8cPQTJiiW9guAG3bohni26Scq/Ds8oJEuhVBFi9LGZj6tV9mJRzoy92xhU64RfYa19PP50yhPnecB6Vu5AVF25he4zpqNDhnV6mRgAkV1nYV5uKTG3XYpfUJTUmjMtviRDu+uEoozMYJYLDz9cXUzu02IQDM1JZ+GL57Yi4ApWAMXzQfidGX2GJvMyOdECTtI/BoINpIWGRLyUWjYy4X5QEdQxomSBsSFm+zyZfgMc4fm5545oc/8brVYeZUfAG/F+WFFnfRfrq3fJFuQkVR7y57squXBWRewfDNC+0aOtO/7sxrCVnWM+ct66KvgXuZVatCxqQJ7C8/jiv7b9+xI4GHn/ypqus6pcbXui9MUsE0XL7fFdDi/uWNYtGOAzgCi4KGhL2RrwC7Caos2V5/0VRt1mFPMLxhLZi6lb/Z4iTDbjFRHvYan8fzp/4dczDc+M0NYNe11WHvM82EUjBG4Cs+C1VCd/hq2uw/1B7ErVUYf9fu07tBbKMrEHNjoUL91LhbKhvcLf3h2p5fRDvV9gKSsIYFsAQkCsrDlmFmgoUUmmq0aDGuvghnMboMe66LR1rigzvLngzOdPFVhvLcDuzFtyyMpMp595P3xATm0YAnsY9fEPvOKV/XdrG/XbSpErA+iyDwrgr6ycLKv/nzIwILh2vGFH5My2zkOLKhJ+iehg5DNS2La5i1vAdr4bY4u+a6k+0oaZIwI0HrQPmjAltrobDng/ps1ApUubqs4spWADy18PoX13ovauMMkYRtbQNmuGe59U7RuhgLCGokpgskKxFX5RcFmuUQ9XZzrV2hbX8YV8WAfC/TzrDuS0zpQrb8smIdvzWstAzrsGS5kjcJPmY6jKD2OXE+GnoDN08VKv3BwVv3kZQBdGsAk77R5G4AH17RYcGlOULN6OJOjLeA89xSwZpZptISlad9SzaHzlo/lWE93SZrLZ5JWD+mz4+ma8tMu7ZCGtUUZvnokm84KxFUzMbisNhji86m3kNs0kecGY/ifUdlQ8XcLoMokIU9fubBb0RNaswfB01piLgXaBZwrNyWla29DmOCkjKh2fOic+HSKuudQbYJPPOHFrVrDowuYxXspqjoeZkaj2LBSayEnZUXdOoEKqz18r6Emc3N7qyF4jeL2vHwTuLUmLiHI8tsDjmsev5S8CXFJ8qml74BcgJXdJilwI0uQpEwgylYSpWVM1AymHRVgbrDgRWv28y/eOBGflwvz3yQpLgrvocGLXpQ6HLWc/HsREldhWEBoxHf/Ltt2GuBWxr5mUFXbUr6nSqXy9P305KgO2M92/ww5rOEUQP06cxkx+Dx8txXrFhe4DukCZrUIm21PjRagy55iaRzbZsAD5B6fkxdp5v+kabUD1qkrBZa1nToohZPk+FSNqtnQWtR8z23kLP4kcbt4ZJwL17ecoYilrCtq5W/4OkshMBcQEOGKeBeFR61evZ9WXz/1z0LJs8efP37cptpRNPwrOgwxg3xfbavh3BhEtIzoqdvWk3uzo+pIjzAenxqWdYMNamfSjzwvCIrnl7jOPTr5DGpk+RTf9AmZorV8g7zMPpR3Va3cZZlnmuvyaUi7iph/3i15mY1R9Pll1d5iePm2zycBCVkWpm8DOeJActsiyUyKJCGBJZs5KKxnkP2Or6dJxAxNkORUQVza1JNRVmW29eoogLvoMMy6jPkxsOFD0Lap7I9znhUOd27qeVXsb+5y6NJu1giU1S31HJBiL0J13MbOWX4XFBh1MI7ab2I8G3DVPIt5XN50Xw6ZEHgE7eL+yqpg4r+pp/mEyLzLajIdGp2kC9Brfs6HRY81VDJfmOglBs+cY0nG3lRGYr0t0tD1IHta28FiSmFuhc0riGAYAS4zzbfdxUmJI9V9VQ+PT3BS7q+XpOhQRLWpYIRPJh0+skCm2UO/QcRa8oLG2rUIG1aG3T3PB2QgIYO+3dZUGfX28JMdMOFC97U7Wyjcx5C5G+7wa55iS+/rmi16pAiL3yrsXPRMFpR8HS9fM+tZmvF3awvmrVQb+Bz7t7ah/b42cYLatjkd3zqdgtFUk7H2zYj6/K56YcRNCj907M3kP9rN/G1EyhG1ORJAntiYxmQhF2sXiUvEXaz5hQABsvihilqajzQWdvaClLETe1wAAHRFNA1uD9QA7sNq6TKE9lavcIdXluckZrUf7j/CIW2oaR3ztOBB/WpFuG+PrVkc9xJ0z/1yPqBfotogNu2ARr4/osOVZyBVN6Qw+dnpf+IGvdYLkQbKuyaHnz9hDZ8srstbKfDFvPy4p6quw8YwnX9SGkCdbKojNyqTGBRFX/a1SKyINYbapZfs6J2i1ktwQWsqc+448VjLHFyj4Q8KKYfG58uNa6rOqxAeaYm53AVeO1z0/+a7CN4wnhruD258jN44J2a1EMhndmpgtEH6nmdWC4J2C2NbvoQX+29kxMMz3VJTixUzNs6zOh85hl75axc0JJFdrMJ3rlQJhwwr536P05n2nKHaNLa9ofFsxlK/kMt/o+a2jmLeM4V1TScGAeyixYhqXaxxNKf5dMVJNj2rIZ5FQ4eocSvzvl2KudxdwDAxBK3VU7IidFhWRrZy0TpzyWMwtVmyzqGTDBBo1GaWPPTlu/HA/tYeREHGx6YoYjt3TcljMQYBU3tC07e3tOhCtyTDmsF6slzuwpmwPVFDQ1u2taAfC4GRbCo/HlUB9Bq7EpvaGbcNjrMnK90LuxZ0PLOTxJk84TpuqGNvRR1Pr/gKN/18w4Ja2kmo/G2d059UZ6fkmubUqd9dLto1clQCzijhwp3d+PVToehFOxXXaEqB5Xv11H9mKQUYpt/PKNW7M5E8VDB50K/GZKwLWnZKLvZ01loLijw+d0uigQXOD/K11GYboB81nW4Blg3K5WCnu1KecxPnn3MG2qI8RUZDPQCXm9xsxbyJkacx5z9sA6RjvxiuQCoiCA+VnvgXue6yk2oCY+Niiqdt7USxjP22Z21zOsWGirb9DStcTTpVgUGvxsRIM5syE1z7r1tq+i44pZGA1oP2xZcUrdvUFxTF2Cj8hPshbkmbQwSNq91G2mX04FbtqWE05li+OUu9bbDesaN5PMWbffXsg7bmtzkPVsTG7dsE1pgHd/jZByvxGXZ/u+Gie5yOkeQpiR8T1t6tGHKrlQKPOXZs6Xe1SCMcbfw2LjWUeLcrERz1mYldYsFN7NsnzaQ+7f7sfQG9TREHcbYQuXZRsvArh41a0Z5u/e16RwiTKS+dKYm4rbeVL6iKb3s9lpQo8zrKHsjQdQZiTodZE/wflBeF+aKmv5ukVJDjubDXMGWHnpy6lrqMApN8zvJBVuUQtU0AvAe0qM+X2puU7i20TIvEU07V1gqjkbvyifb2/S/QmhuAzK+G69shGKJW10YsknNFoq3Llw3wAWQUOVv09glHeL4sEb/Nm39J9MYxM7v0ovTzWOoKaeDS6sJvj6tDRHODAmnMqeH5Ic0cGwyy1jx+RHgUVxQn28Hs8/7GNVK7BhLvI6ccz+Of8ZxVlzRx/LyKee29K0MXNfD7nw2xSD5IP8fTzzJPNhi6+WIrMR2Oow8tqT0Cupro2d8/8zNL775Ii68nAIq8xvxjUdGQuehnm/phSWxadsfRgZleM0jBBsNf+xMFlW+NBWS2vYsRMu7sf2e0zKnI6fBKzGnQjeqR9Lo9kcDz/ePAnv//dzuW0mHbTWw4IfZ6kHNyjNnBL1RTwDaO9Ib1DP8+7GGIRLNgj2wSvgT9LwgH9NGfHcJXOlS3Jwf2RycgJL/8fgpRs3Mhw153A+EvxA+FHaHYB3psK2+Z79QEXewElGuht9hGZIs5U8hWwvRY3mfZ09PZTaPenF/IDCB603xPG/6sV2HochtXTHDDAmOtEA1UdiSNJphMWRvlqplX0s2P2Qeyta2ifGoY9V8Y6P6QjvPjQAvshrhnt+54rKvAZfYqu+K+viJ+XhUAHtsMf6NPX+CBh2mk0+mxiYCuvtttc1L3mcLgHg+D8L4XfMIzCKKeAheYNa5eo/ndfxuFj30/kzfJ3+2FAGe4GeLCOR1lPj+Df3wEOmy5m4HN/OTNKVEDsvVrE/0X+b7re51BlWKaLx5OzrqsDypfzwmj0kS3+Xcr+tlGSeSFVkJ9VXeXwUw7vmt3sTa7WconKTepJdzWIlbdVhWz+tpwR2uaW0Sn4ubxAyzpA4yJ03+LNqxeHZLblzjWrc10lTe7YO3NB3fM26m+Y15XM4fVz7v9ivCOJ4NtN4KLr5d77BX4V6WbiZrTKFSzos4yLM1XZ9rgVp2tkx3APPE5poS/z28zgfiu97sFEWJO21UoWAxJ7S7/TKucPLVeuFtGDwV/P30bW1TzVZBibeJAvUE6bAu/WHcx0bMemhgi5sn5BWFxwNHXZMjEGSN/PfNSftw4bbrMHzYbgDUnWyeRTl/Iciy7NPEeJeLerfl1Ax3yrRvYtziflsiUND9ycEPayvgXO69QjbyVh02KLClV3TYCEDCRrQSXerfa1/B1rL82DtVg515iQNDOqxLXmLv4Hkv+yIjQmb0eO35EiRhAvd+3DpsDe7ylAedJIyyCrbrsGHpqMP6B3VcbJVZDjZsjqYPjZAOQ4kn3dLxD2GfvMQlFtOoWTqZSjkcZWkd1t4PGwC0qCP2zizzumWM8+CQHyagw26/hA5rOMcrOqzTND5XkLBT1mH/IOGbokAjQDqs9fylfSNnJY7nh7k9+GE20jFnReK28lf9MAlLaQZ1SZ2gDuuSxnQgZCUe6IfR3MlNGQs6SRj1pErqMErEEZw4nuat3534MRysw+x2g760mksRZ/fTYFT4FDO34m4hYQEUKQ/NMu+mX/bHtT9nwTX9ou28BBkFVmk3D4orLwg8OnhfZtRvhL+L/2Yjfq1+1PXjjzjkTs2k9nG8uk3qx8YP7Zn/SZeh4riMxbuXi479sKVGjN9OV28wB83X0I/dmGGD8wsaZ+P3LqB9vgISSXuIovW3dtY6Ki/zl/7Q7zXgLSusObbwDu2BVdwXmseErMRs3Zda6Nqa4K30bi/wPH6JHu7iPZ53yQfot/1S7/LFu74svOvZ2wn3Bf88Oo7zV7xh//M3z3bMf7wTG/P/5qd5ZP6/fIqfsvscn/L+0pHZlxRh1vi++X+voFkASrx3dqjMiziOKx+/DKGXZw/FVVa+5tnsUBnmZZbF5ezARn7SWPr49s908X3xJEnSqOJNml91+sqbfhrFPk2tFvt1FFfJj+h3SnnV+HmfRu92k37o19vFBZ6aPfKWgugdcsNHnTdsmG3z326swD3lm9mt2YvMUMZVXaFAmPiP3SDCMMvDZ5zqyR5g7uKbqizDKqQpDEAdmuN/aj/MQVHkZVX5ZUHV6NLz0KDcZVnBO/STP81Ohu+afQlR35ZZ6IfVAz4f4hv4GE/iHd3WfhWGcV1VtY+LrPFCHN/wO1bAiyusO4a7wAU84eFtoo6chPuwHfN5/v35V+3X6eJIgzrCp58ffZ+m8LZfgHaRppJ49n0q1NknbiOHahJIsTed3OI3vhYfXTN9H62CGNXPnx9+yhNUKKPSwlPDc++ZNObR0g9PNFmAM43LB/xUsPJoj7KoHh6eHv7saBoUZU/MjDtgsardDNJlySRZLGlCpPXsjVFd/yDTj+bgoMmEIrPJ5qDZ/JFUr3H9mCT+Y31DR1tY7v23ez4ZtRAx/KIvn7DaMS/hrkN+9SfdU5okybs5PBqdBJumFsLPRQqLosH584V5pcG5/Us0X4Bl4jgf589vTorf9nP4ucCPg+/lr7bHPs75LThC3/BxPnuX+dSnj9OsR/TO+QHzXfjI/CeiUWGNn7fHyo+iaAqDzK8TWAFQkZV/W91OcOB28Q/G2bOTNA9F9Okoqp0owmdu+VP2H/2YLfNl+Eev4yeJzHHzz/xMH8n6sG+wP7ewhPA7hn35EPN+CLsyKzN4P2X8FNLbycogU4f/xxm/LYxj7Nzl9Cu7g2PFf7O78r4o8BfHcxiuOGCP00fzv7+uYVN5AQy3nH74ffDO6N30AbxEP2Ske152d81bfIgP0ysQmZmvQMeMEG0lnpqJ5CeTqR+GNQoy9CPamkBCqQjC8KmC1Nvp5umHZIaIa/N3ifz619Wv4rr4VXiwMOld96V5hb6qzO9xW2EFMz0vPJiS9pUWwJCzWwYyGYk4sRsMvIEH+psV/McAe5ZK1EPp2yOWPLcba8jhplz+IpP2unzC5x4K/soSh8jahdPCFnRc4j7hONsPlTleyq+wmeX5Fd5ZZNe/Lsklwuf+evgHm5l+sQdETk7Bu5e/+C14Zw5/iApn/j78xjXwxy+xhf8BvUAukT2AV4yLZQ7wB+DZzffoddd1Pfh0qCT/8J89UBNfIA/Z5TAUO74w63nJJXsIR1Arr1/wfS8efcge5d/4Y7bsl5kd+gk87DQP4I/n8RuBOcJHP9HcN9vr5k2lb96fgz68Dygmi92z12DDFOZ6KL9wAR9qBX2FeSZzUMaeWNfKMaNlonTG5s8ryulwdvb/AVQqLee75pnlAAAAAElFTkSuQmCC;" parent="wvYD6DcHS2W4OUJYqL-E-15" vertex="1">
          <mxGeometry x="4.690000000000055" y="60" width="110.62" height="50" as="geometry" />
        </mxCell>
        <mxCell id="wvYD6DcHS2W4OUJYqL-E-36" value="" style="shape=flexArrow;endArrow=classic;html=1;rounded=0;" parent="wvYD6DcHS2W4OUJYqL-E-15" edge="1">
          <mxGeometry width="50" height="50" relative="1" as="geometry">
            <mxPoint x="-10" y="160" as="sourcePoint" />
            <mxPoint x="40" y="110" as="targetPoint" />
          </mxGeometry>
        </mxCell>
        <mxCell id="wvYD6DcHS2W4OUJYqL-E-17" value="" style="edgeStyle=orthogonalEdgeStyle;rounded=0;orthogonalLoop=1;jettySize=auto;html=1;" parent="1" source="wvYD6DcHS2W4OUJYqL-E-1" target="wvYD6DcHS2W4OUJYqL-E-4" edge="1">
          <mxGeometry relative="1" as="geometry" />
        </mxCell>
        <mxCell id="wvYD6DcHS2W4OUJYqL-E-25" value="" style="edgeStyle=orthogonalEdgeStyle;rounded=0;orthogonalLoop=1;jettySize=auto;html=1;dashed=1;" parent="1" source="wvYD6DcHS2W4OUJYqL-E-26" target="wvYD6DcHS2W4OUJYqL-E-28" edge="1">
          <mxGeometry relative="1" as="geometry" />
        </mxCell>
        <mxCell id="wvYD6DcHS2W4OUJYqL-E-26" value="&lt;font face=&quot;Times New Roman&quot;&gt;ignite and burn&lt;/font&gt;" style="whiteSpace=wrap;html=1;aspect=fixed;fillColor=#f5f5f5;fontColor=#333333;strokeColor=#666666;dashed=1;" parent="1" vertex="1">
          <mxGeometry x="680" y="400" width="120" height="120" as="geometry" />
        </mxCell>
        <mxCell id="wvYD6DcHS2W4OUJYqL-E-27" value="" style="group;fillColor=#f5f5f5;fontColor=#333333;strokeColor=#666666;dashed=1;" parent="1" vertex="1" connectable="0">
          <mxGeometry x="680" y="600" width="120" height="120" as="geometry" />
        </mxCell>
        <mxCell id="wvYD6DcHS2W4OUJYqL-E-28" value="burning with changed outer conditions&lt;div&gt;&lt;br&gt;&lt;/div&gt;&lt;div&gt;&lt;br&gt;&lt;/div&gt;&lt;div&gt;&lt;br&gt;&lt;/div&gt;" style="whiteSpace=wrap;html=1;aspect=fixed;fillColor=#f5f5f5;fontColor=#333333;strokeColor=#666666;" parent="wvYD6DcHS2W4OUJYqL-E-27" vertex="1">
          <mxGeometry width="120" height="120" as="geometry" />
        </mxCell>
        <mxCell id="wvYD6DcHS2W4OUJYqL-E-29" value="" style="shape=image;verticalLabelPosition=bottom;labelBackgroundColor=default;verticalAlign=top;aspect=fixed;imageAspect=0;image=data:image/png,iVBORw0KGgoAAAANSUhEUgAAA2EAAAGHCAMAAAAOUKq7AAAAAXNSR0IArs4c6QAAAARnQU1BAACxjwv8YQUAAAMAUExURf///wAAAPf3997m3ggQEAAIAFpaUt7W1u/v78XFxc7O1oSEhCEhGUpSUlpaY3tzezExMRAQGbWtrSkpIZylnKWtrTE6OoSEjLW1vc7OxTpCOpyUnGNrY5SUjEpCSs5KjM5KWs5KvWtzc84Z784ZEIxK74xKEKXenIwZMTFKa/fWxc5K785KEFIZEKWEzs57EJR7EFrvpTp7pRDvpRnvEFrFpRB7pRDFpRnFEGt7zhB7Yxl7EM4ZMUIZ5ggZ5kIZrQgZrYxKMWucnKXevWN7nFrv5s57Qjp75hDv5lrvEM7vEJR7QpTvEFoZWlrF5hB75hDF5lrFEM7FEJTFEFp7EBAZWs5KMVIZMZwZjKWt5qWE75wZWq3v5s6cEJScEJwZvTFKGXsZjHsZWq3O5nsZvUJK5ghK5kJKrQhKrb0ZjL2EnL0ZWr0ZvXvvpTqcpTHvpRnvMSnvY3vFpRCcpTHFpRnFMSnFY2t77xCcYxl7MWuczjF7YxmcEAjvYwjFYxBKENZ7a1pKENZ7zq17axBKWmMZ5ikZ5mMZrSkZrVqUc5xKjJxKWpxKvVqUUntKjHtKWntKvc7vc3vv5lrvc86cQjqc5jHv5lrvMc7vMZScQpTvMZTvc5wZ79bvpVoZe3vF5hCc5jHF5lrFMc7FMZTFMc7Fc1rFc5TFc1p7MRAZe5wZEFqcEDEZWs7vUlrvUpTvUnsZ79bOpc7FUlrFUpTFUnsZEGuc7zGcYxmcMWNK5ilK5mNKrSlKrd4ZjN6EnN4ZWt4ZvdatzhBKMdaca1pKMfdajNatnISca/daOvcZjPcZOvecjPecOtZ7762ca5x7nBBKe/daY/daEPcZY/cZEPecY/ecEFqcMTEZe/dC5vcQ5vdCtfcQtfdz5vdztffejFpCc/feOvfeY/feENat7/el5veltTEQEFpaexAQMdbmxc7v5hApMQgpEPfO9zEQOoR7pff/OoRzY/f/vRAAId7O787O797v94SEaxkQAN733tbFxRkQEBAAAO///wAAADO9NKoAAAEAdFJOU////////////////////////////////////////////////////////////////////////////////////////////////////////////////////////////////////////////////////////////////////////////////////////////////////////////////////////////////////////////////////////////////////////////////////////////////////////////////////////////////////////////////////wBT9wclAAAACXBIWXMAABcRAAAXEQHKJvM/AAA3HUlEQVR4Xu2dXVOjzPP3BRRRUMDICoIc7Jv6vf+ju2or+z/Y0rq0Vrfub/dMEswjJEBH0x93FcgDMExPP0zPzJmiKIqiKIqiKIqiKIqiKIqiKIqiKIqiKIqiKIqiKIqiKIqiKMrXI6vCwG4qitI3QeREl3ZbUZS+CRInvbbbiqL0DXSYk9ttRVH6Bjos8uy2oih9E0w/Eo10KMpQQIephCnKYHgTJy3stqIofQMdppEORRmMYOIkGulQlIFwocMm6ocpylAEkZMErt1RFKVnKJaoVqKiDAV02NRTHaYow0B+mGb+KspgcI+z6jBFGYjLSP0wRRmO3FEdpijDEUycqeowRRkI14uc/2mPs6IMxVWqOkxRhkNzOhRlSDSnQ1GGRHWYogwI5XSoDlOUwVAdpigDojpMUQYlmKoOU5ThCP7nRCphijIULxMdvaIow+EmzlQlTFGGwpvAD7PbiqL0jcYSFWVI/iMdppEORRkInZFUUYbkKlUdpijD8Td1Ip3NTVGGgufpsNuKovTNneNMXuy2oih9k6kOU5QBIStRY4mKMhSkw1TCFGUo4IephCnKYFyRH6bRekUZiAISpgKmKL3jeZeel5WV40QlyP6+eJ6rsqYoB+N6efizqpMkmTw7cybYr+P8qrDvUhSlM66bh3UdpVaqVvlIo7oqC9VlitKVwCviZPphRekTb/bvjOckzj3th1aUtgRFHtdWfIg0SqL6xq+q2Cc/LM+q2vf9pKncnh/D7FJ1maLsJsjqqZUbkP7wX++8F+tvNTN/X4o89OvIvg9EfqYypijbgW344Vjj8OMRTtan7i+SsP/sNvNCAca5lD3XpVqLirKR4CqeW37RDaTLHp/jRc5kNacjyMPEfspJVJEpynq8cOZ8pXVYrB2kUjxvyK2HkNUz4awzHaSpKEu43oM19tKk2tjLRStDbMxLLObhkUmokyoqShNvZue93WZbUnthJUZbRmAGpW8VWRKqHlOUGZeh1V+/b6/sofUUqXO+PY2jiN/NVyWhBj0UBbi5VTyp/7TLuCMdtmv0yvVMXKNqu7gqyinw8sfI13uV77brePSK3d5MMJPZqNTBZMppE4QTloW0aiUL12nLEZiez1/rJLk9oCinSG6jf9VVu7iE237e+szI2IeGFZWTpfhpjLmb1oqmyzrObmn8samqMeUk+VeaAP17+ySMjus4BxWPKHv2dRSZcnr8NVZc6n/KM9xBFx1G5OYkUdnhM4ryDQisAvO7mXCd1w8LShNJqVWNKaeE1S3JfUfd8tJ9/TDvzzmdKgpVjSmnQlByhCPtnnUBHTbtpMMIG7BUNaacCN7+Nb6rH2bwbjni8UODisopkHEQPa32SRss3jv6YRZzzg9NVVS+PUHIFmKU2f1u7D3n72VFZ3VqVWPK9+blD9f0fXuoXpJ1Y5xbkRnf78nuKsp3pDAx+tDuduYOamjfmGDB7t9HbHcV5fth3KFk/6BeDvW3d9Q9iOnse+tPRTlyvFueQyo+INzAa2Du37FlJVydMeU7UnAvc1ra3b2Aldi9P6zBtenp3ttKVZSjxeiP34fpD+iw/3XJY1zB5Zjis8Y7lO9GzqG8+q/d3RPosJ2zCOzA9BbEB36LohwVgZlpNN7fhTKwH2a39yVXZ0z5bhRsm+3Zy9ykl3WcAw7bvx9+NYpyHJhesOja7h7AgbFEi2cEXrWY8j0wAlb34fnkh/thTEhX9K7jMpXvgBmqUtm9w+hHh4GcBmamB/uFiiJNUJJ8HdYLtqAXP4wxivWPJtsrXxszFiy9s7uH0psOg4jxMoC1Tm+vfGVM2C7tLWzXlx9G/OUZPCLNUlS+LkaD1b/s7uFAh/10+9I6l3x1B+QhK4osVsB69HXgh/U4+uSafbFE149QvibFDxawvqw6AjqsT4E1WYpJDx11ijI6xgfrVcBIh/m9hv84m0sNReULYkzEQwaDrYFjiXa7H+5VxJSviGuWF+p7IFZ//WFz7ljE1BdTvhY5BxF6H4bVY3/YHJ4iR7WY8pVwPR4h0v9Q4j77w+Zw1kmiSYrK18FosJ4ypZoMocPOzl7pap/v7Z6iHDvFQBqM/bA+o/UWl9dWT9VQVL4GJoo4gAYbIpZo4Hne1BdTvgRmlP4w0zkNEEs08OwdySCtgqL0Cke/h9FgQ/lhhJl0W0VMOXZYg/U1HGyFQWKJBm4Z1BdTjhwTph8sLDecDrNaTH0x5ah5GSSTY8FgfhhhsjtUxJTjxaRKDejMDKnDZlpMM+2VY2VoDTawDlMtphw33g0J2KDhuGF1mJ3lTUVMOUqGyab/zICxRIOKmHKsDJjJsWBoHWZHPQ+QmaUohxGMoMEG98MIFrFbFTHlyOCKWQ1dMaHDbodUYcBosaGbCkXpBk+d/fhi9wYDOmzwus8ipiuzKEcFD2IcwXuBDhteu7jkUaa6MotyPBgBG9hBIsbQYWdnHg0gHWSUjKLswxMJ2GSMGjmODjNL4vqDBi0VpTXlBepjDwtctmAcHWbbDI3ZK0dBSAL2e5zp0EbRYcRYjqWi7IKn9Oxt+aIdjKXDbHLH4L0PirILnvWmv+WLdjCaDrNzguuYZ0UYrogfvc88uonxdJjJAvvQbjFFlOAntfRjVfoxdRi0Mw9l0TUyFUECngVtRG8lH1OcecoRzbNXBOGImz9iKz+mDrOzKI55e4ryifw3auB0zEZ+RD+MMOnMKmKKDNk76t/kr90bhXF12FnAItbjuraK0p4CAvYxqgYbXYeZPPtzjdkrArw8ovJFo2qw0XUYtBglAUeaZ6+MjhnTPHbrPrYOg6YmEdOhLMrYBDyv1Mi1XUCHnZ1dPeNGRxk4oCgLOG1v/EB27jiV3RwNk2evAUVlTHgxoDGGXC4BHTZ+wnv4hpsdLTFMUc7Oyg8ZASM/TCDfnWP2us6zMho8BHjoWdXWAh0m0DvF6c268JEyFpcUp38WyTqHDvtjN8eEY/aaoaiMg2nRZYZ1CMQSGdbatd1RlCEx+fSDrcG3Hegwmel4Ido65FkZhXuqaxKmGoGKLtQ19YduWzMUlcHhQVOPUo354GuvbOQfBxRFTFTllOB8+khsmUiR/jADRzs0fUoZFrMQulw1gx/mS+lPk6Eoo0GVE4Fnh0kFTSVBHWYNZF9FTBkMs/DP6ImBDSgvUUzCzKwCOk2pMhQu1zBBG5F1mKAGNfev4zGVgcgoG9F5k5xCcPzxYU2MhDk6h6IyCDy7r3B+HnSYWKRjLmHJpd1XlB4x00yDcdaAWA90WDL4QpsbebUlIJL0rHxzTLIUkNZhgnkVVASUoKgTvCn9wwLmJ6hikpGO3HFe7aYAVAahpk8pQ5BR21293MjrMNlIRxr8oymAhIYWKN8WM4V74D46zpuwDhOUMPLDvLMXyu0Yexo75XtjliEJODdPVIfBRJPWYTaoKhjSVL4d89XqaEPUD3sSlTCaYIvCiLBVNdqh9IcJI5Jz70nrMHk/jAP1XCCa26H0REZLofPMUjTRr7QfJhut/2AJ+48zoCWbGuUbwW6HHfdIrbhkxcL5BVUH3b1xv9gxVVdM6QPvB7XXNjoNP0jUD7txLgRTSkwskeHei1hdMeVgeAWIefcPSZikDqtFT/8Td28ljOftOJdsbJTvAQ8JW/SvhsJ+mO+kgjoMZWH8MGAK5s7uKcp+mDDi3PUJYDEK6zCpeeQICJX1w0DA7qlGO5SD4KXQFz0/tOqqqB8Gk1U2Wj/zwwD3imm0QzkE9ucnDX9eOpYIP0xQwBexRIb1u0Y7lP0JeCHZpkQdgR8mKOCNWCJh1lEX1KnKF4dnlvo8LQck7IRjiaTDGhLGRqtseShfGo6WfW6ij8APExw3AgmbxxIZTticqogpe1GSE7Y0Qb20H3YjOhHPkh8GOLdD12RR9uEvVZ7lCepRx9QPa8LB1lgDikpnrmmcYb086wxZiZI6TDSW+K+Z0zGDox2aZq90heNkq/kTR+CHyfU4UxrHZz8MuOSKRZJlonxFNi3DJx9LFI50LPlhoODVaJYFT1G2ckcC5q92psr7YeI5HSuFwrkdPHxOUVqS/95QaagVF9Rh/6DDhMc4rwlq0OQCzq3dUZTdcFfz2qTWV3k/TFDCyDddp6tYxDTaobTFCNjadS6PwA8TrMkU51knYdzxrK6Y0hZqqjdU5Ad5P0x2zt+VWCLDbZIuLKa0g3M5Nsw3cwQ6TNoPW5tLz7kdfzTNXmlBThos2dAelyfth3Es0W4vwbkdgh0JypeBpkTcPDpeWIcdQSxxg4S5Eyo2yYWflK+BWUl2Y2P8JO+HCc6X+LrJDwPXPLO/RjuU7QS8ds/mtdDVD9sYzmAR02iHsh3oqK3VRHq+RHk/bPOaKzqbvbIT9te3Te5y8jpsW3ccCkc7npVt3E1RRZJtEgQdJjnprrAOo/Fh2+KF1CumIqZsxGtMUL8BjSVuKx7ueJ5I6njlqNmSyzHjtGOJZAZuLR9uozTaoayHnbAHu7OBh5P3w7a3L2ZSAbujKE3yNpO6HEEsUXYE5tsOBcV2gGAjoBwtBc/LsavH9FZeh8lK2PkOCaOVrp2pLqOuLGOSpXapJ5oEWHquKcHTr5lragXuePbXDv1RThge4bR7rR5aTEw4lpgK6oddsUSGlwzdlDmtnCrkwy/PProGEkRhP0wwu/Yf2peNeYkLTG6H3VEUIn9DpVgz8c0y/8GWFPXDbiRPzxq8hXLi5kpHsigL2D1voxyoS1XYD3sTTCm5RTHt1mHcDm1PjVFOCw9tc7tsH4p0CMcSJXUY2cgtJOzsTmezV5pwxmqrPhyXZFHS/pFdxxkF1cIPA2wnaq+YYuiQh8CtuOTq4PLrh62fp2MJnpNcp9pWmPIcteHxP7u3A+FovXB/GKmmVjrMLKMuGnVVjgUOI0aXdm8X1IoLShj1hwmentZeadnRdcWumPaKKZzL0d6eoTHQkgOgRP0wXmZldd769VBJbR3MqpwEJlmqfewCvv6FpISJ6jBa3ahVLJFpHz9SvjEc9Oow2oJy62X9MMn+MJRWu1giQ3FX0eZIkYcFrOpgyqBhFp0UUDSng73Q9oVlDPC2VqXyHTFDwrpUgVJ8no5zwdO3ya1vwFNtaw7wCXNHq4StXcRoI6TDJK1E+f6wDhJ2lpGI6YjnU8X1aCLoqJtKILNSOKdDtj+sgx8G2AqPVYudJmZIWMf6SgEyQedduD+smx8GKPqoWuxU4Yf/ZHfa8iQcHoMOE5Swjn4Y4EROjdmfJJyN2HnxYdJh93Zbglp08ExXPwyYOSglXVdFBl6Gr/sC+pSpIDl8FypBdiacbn4YuKJ5lH/ovB2nBsfp95jygnSYpFtRi87j1NkPIzh9SheMODG8Rzz1jz20AarLCY9x7u6HEdQqqSt2WvDwpb3MLeFY4hfrDzOYoK1kP70yNqgpexp78n6YZFXdxw8DnD6l83acDnady736QUmH/bTbAny1/jALe72JZiieCjkJ2PZFjDZyBDpM0A3czw8D9yRiLWbLU74DB/XQCOuwL+mHERrtOB1oWs39oxWn7Yf93M8PI6jUI8mMTmUsOIy4d2tKbbGkhInqMJ5pa880Xl4womOatfIV4VwO3+5050FYwmT9MGqd9tRhRsSSfT+tfBXKCzzn7slSc6RjibKZv/v7YYAaJ50a57vDGmz/SmLyhTunC/eIuITt64cBI2J2R/mW8NyIHWaWWoV02O5FkAbDFfXD/sFK3NcPI9gF1qlxvjGcW/B2UEBLXodJxrwpIHhAvzGtXONclGoofle6zo24DtJhsnmJgqennsRDdJh9AoJmrjIgLregh46ugg6TrCFB7VzIxRI5hfegaKCZfUoHi31LbDai3dsXiqYJSlhx7vyWGx9GOuz5IAkzK9BqtONbYiJZB6bGSa+B6aWCOR0uLahyQCyRMFPj7Jd1rRw1OXd4HvpkaTlaUR32LHn6F/LDDpMwm7SmE7x9O3ixnT3z6RuQDpNMqvDeJE9POqzTDMlrocWgReecVAaAFxbuYYYLcR12LjlvE/lhjwdLGGsxXR/ze1GQifh+uAPj/ifvhwmuehdMezC0NUPxG+L9wCPtpR+JOnQEdZh7/eHc2G0BSIdFPQg4m+yS/fZKv7hs+b/avYPg8RuyOkzOSuRY4mH9YRYej6npU98Gfp71P7t3EDQLnKgflkqaVxRLfO7DSOWua12877tQfpCA9VMvqWoI+2GCEtabDjMzOaiIfQ94RFhf1VLYD6P+sEgu54jk4r2fQAuvLKbrY34DXCNgfQmFuB/25kzldNj/TfuJdBA8+5RmKH55ghjP0an/s7sHIx5LpHC5WMNPOqy3nMKMxurpHIpfHV6VoCcfjDgCP+zwpIq9CSb96TBrKOpMwF8bXiPssUezivIRJP2wv6lkYjrpsLQ/FcpPx3dVi31ZXF5hpVe36Qj6w4RjiX2mlHCe/U+VsC9LAafJSXtdsVI8lpg6k0u7PT4cY+9RwkwqgK7y/FX5R92afT8/1AlhP+xZcHzYFO1LnyqUe541z/6L4h6wwspmQmEd9iF5etJhSa9GHadka57914Tj9L1PgEmzCMjqMLnTc15izyVqRj2oFvt6mI6w/lcPltZhkDC50/czAvMzV6rFviYsYLd9azCOMAv7YZFYpIN12G3fjdZfOHcqYl8No8F6GCy4AlmJckrEhQ4T7g/rf1kMNhQlTW+lO5zKMchSOpUjOWEh6TA5CeNY4gALWebPAzWHylCYxO1BVM0rmltBv7x4ltZhQwxNpsVrdVWWLwRP3DbQtILQjm+Cw5ouU8HcevbDBpkmhG0OFbGvAgvYUGPtheethx8mmfmLku0/PEuw36wi9jVgARtMCtDaSi6kLOyHoWgH8MOASe4QnEZLac0da7DBhEA+p0NSwuDfDjRFFK/K4jzZPeV4GVaDGT9MMNIBHSZnJZr+MLvTN7wyTvpg95RjhTXYkGvYkR8m2NKSHyZnStFcU8NYiYC1WKqT4xw3VAWGXSQSOuxctj9sIje3xWCxRMaskKmG4jHj8boeg67CKh1LfJYcgTlMTsccKGjVYkfNHQekhl3mmHpuJP2wN8ke54FyOuYYJ1q12LGSUwrp0OuIS+uw4UINLRgqp2MOJ+OkpVgsR9kGzxkwtIDx7C1Dn2MLwv1hE0jYoNWfRUwHPR8l2fsYAibdH3YtmlvPOR12eyDMRKWCJaxswJjww2uX2HHOBXM6LkV1GIUihvTDCJO1rVrs2Bi8H2yGdE7HuaQOG9wPI1iLaUTxyOBBfKP4R5TTITw+TCwOMMwY5xWMFtMRmceESWobJQAhrcNEx4dRh/7AfhjBWuxRZ7Q/Hl5G6AebUULCBJtXUT+MIx1jqFDWYolqsWPh13gajGcROF0/bCQdpr7YUeFejdHRPAdW4sn6YazDhvfDCF76SLIpU+bk4/SDzThpP2yUWKKhZENRfTF5xosiGoT9sOtvnZfYxPhicqtgKIZ8TB+MENZh3mhKZB0D59Z/hiegUi0mzFiZHAtk+8Nc4bxEFPdoA0BdXl1MV3oWZbRMjgXyftiNbKRjPAEPeHUxweFwyvgajHWY9NorYmmRI+V0zAmMFlNfTIggJl94ZAET12Hi64eN5ocBWjVbtZgUHi/AN7aAHUFeouT6YSPGEhmzDG2imfYCFD+47EevbdI6THT9sBH7wyzGUNTsjvG5ZAETmIb5CPwwMQkbN5ZoyWhhFp27Y2zMjAES+UPysUTB048bS7RojuL4uB5rsFsJD1jaD3sT9cPGjSVa7kjELlTERuSKNVglMvettA47d37/tduj446WW/8Z1mKSa0qdGpwUOsQazW2ADhOe81dw6Re2EgVMcxYx56dG7cehvEBpi9nl0GFObLfHxy0c511OhZIOE0mLNBOJ6fpiY+CWNHLo+d7ujg50mPNqtwWAFhHWYeP7YcS1WV9M0D4/FTzTPyImYNJ+mOtLnn7snI4GvGyEMxU00E+DnMs5urO7ApAOE5wv8QwSJqjDplI6DOe+oUf/LvjoT4GcPd7hFrhsAXTYuWAST5BI67B3KWeI2jYYEGOnyZ0UJpfeiSRjSnjOz5JpctBhsv1hqVTp04oBIA013jEQQWYEzJlKDmeADrsQtFSCWjqno7bbo2MlTDKU+80xg1WA4CKQxlaRtBIhYWJGskhe4hySsJob2Uo7xgbALG+ZTvBL1EqU7Q87O7uR9sPEJjHgGJOZ+EinFugfk+ob3V3jr9xi/IBaUklnW9YPE4wlcskXtiLofMA945bcdNWFZI+MQViHyccSxUqfdBhu3XSMaa59r3jGBaNU3xc0YYLTmZnnLJjTIToCk/0wsSmHjQ4D1Mg5b6E6Y71h5kSMMnq0p67Drt+kY4li7ZvVYeCBG1zNUuwL0wv2wxSuR54AbwlBz1nwAoTn6ZDWYTaMalZ7rlWL9UFQ/m6Wpjc5Ah0meAEFlLmclZhJ3vxCh52d3Wm8oy+8mIpyMdryklbDt9si0HMW9LKhwwTnrSc18mC3R+cBJ593BZp4R5SppXggJjbbCI/TM5bWYYKOkPDaK6TDxLoqqEN0YReaZU81v+NAzHQBzYXpScKkdZhgcruwDiMJE/PDUBceX+w2MLOVOrFqsf0JeDSzM2mqDGE3SF6HCSZVmPZNKmUsgISlzYzUID6n6lFL5mF/bcxYsOfPE96I67BKfM5fYR0mpsDJnvl8cpNC5ZSqxvYhiDmGuDyaWVyHxafsh1H7JhXmcUnClkreJKsKzTr2xbExxMmyCSCuw8hKFNZhUo6QcKRjVYeduWaNMacW9Iy/KCaNY80wBfXDJBsYat+kbn6dDoOpY/I7Iu0Z64ZJ9E3L1dZaXIfhAk7bDxO7+bUShmtiEUtjTfBoT26s62Sd6j95HSbuhwn0QAVc4Bsk7KzgiJjO9NYa104WsH5WevXDJBesE+oP88J/+L3GDzMEFauxJFM11gYbHko4k34VcR2GyxP2w5JALNQh1L5dUqzQJVW1oeQzU2k0274FpQlxbLSqqRWV1mHCftjp6TADSdGmmKGNKWoq8C5sjH5LZOgSJuRJ+2GpYG496zCp0qecjs2BTJcuDY9GJ8nZisnicPwtpUQJn6IShicp6Ie50GGCaZGiOmyjH2aw7ruqsc0UZq6AZGvSAOkw0Zlw5GOJgrcvGWda3x/WIDAGkK4ztgnbybyjX4PGOAuaSZw1JbwG5qn6YTt0GDBqLK3klPwRYye72ZmTQyMwBavY2dmrqA5zXyaSRqqkH7ZThwHvlitRpGpshcx6YDvr7hWaqVtX0Eyk8WGSpr7o6kZHrsOA9cZ2V6TTorCx1hZjwskPE0xqEPfDZOf8PWo/zBAYY0jXj2gQhFwmb20CrS75YaISBh0m6YeJzvnLOiyW0mE/cPI2HpaNSNc6h4chsBGOpN1QVfGZcB6EdZjo2iukwyTHh7VbscCskwqP0RP0Jo4HG+Fom/BC/WFi6+sQR+CHyYXK2A+z26NDT75dLZmltmrf2FlgIxytgz8u+WGJpPoX9sNccR0mJWGkw1qvrGQme3PSE58nx/0Vv1E5PLdPdeHVP8RWsCKE/bDgUdwPs9uj00XCZvn2p+2NvZSmEJIuS0qSH3YjaV5LxxJFo/XSfliXtjXD+4mTnYsqeHrkAki7raFxiXITzemQ98Pe5G5fuj+sk/XixR9cw05zopzAjmN2qo7VhdZekV7H+bT9MMn+sPRXJ/HOfJ5R0UlObr63IDdWcnrbtbJwf5i0DhPuDzuXiyUWeGzHndOxRGEb8tOSsbn+utlDUjgv8YR1mGx/mOjqbVRrut+6HdJ7UZ1M5N71/pgAx8VekVT2wyTXyYYOE1QiXM/kXPdjWT+sC15sOsc+qtNYXt2LYeYR/n5tyjH4YYJV/OxfLbi+EJe+WEYNSdhe6vvqhmuck7w2Fpb4nrheaNqT1M/3tItpHedPS0WMDXSY6CBr6DCxWXe5N1Isp4MkbL+2zbWpis4k/taJVPC/rHwdMESOWlFpP0xUwuCHyXkUon4YtW37dnd7YW3CitFPycozKK73+sz3+FZ36WFeQj6WSCsxSi4LBx0mNr5Qdh1nKvkDxNvMDYzaE0pWn+HIbo3+curDWmCKJYr6YdSSSg6hhb0jZiVypGMqNf41R8kfokDz2IQVnWn87eKKRenbBsQ/sF/Cpdx60VjiEeiwV7s5OqzDGiu9jouHOnSYieo92WY+9b+TIguKn1a80mrf+MYC8THO8LfPJTPdoMPkVOgLSr8+E9Jh3vvhbdvLTMacJPwuwftLOwDMieo+Gj+KJYqOwIwd50Oy/RMdH8Z+mN0eHTp5dbB0Bw8zGfsWs5cG+Uy+kp5WnxGNZgHvEY9GUML+nW5Ox6F+2IwgtP4YVcqvHbz3yhse/+U4790S6DfDfpikDgtgpZ3sGGfuD7uVqpR3z32JdxDa/jFn6n/h8WN5PLG38djjsjPS89YHlawOE85L/H+C7Zv3u78YU5DbPA/n4/FLru0XBPe1NQ8v6l7Tmqk/TFSH+Sc815RsTkfwjsa1NwXq5rUdPuZEVf7FhKzI5uor6jw+ZTtuiWIR1WFkJcrqsN+yOkysx5mi9X/sdi9cVZOZkCXl11neD+I1C9ac1/1HRCXHABIBrAthP+xZLpb4f9BhUynHhSTsZ7/i/ZLNTC3KWfwKQuaVNvUQpFU+QGtHYwB7bcg6cgQ6TDiWKGYlHt7jvI55pgdI4qujjnt4RZzMW4Q6HKalzXEG0f6w11Oe8zeA9S8VS3S5x3mAk3vz6D0az6Q60uBi4BU/o7l4pcPFQKVT28Xn/L1x0l92c3xIh4lZEMPoMCLI5lEPACH7+5+Us7meoMjqhXhFj0MmVuZvwjrsCRL2VXRYsNLOra84rZdep7SK7fM9NU/pBt7qFSwfWLwDb996HaTD0nUn966ysvj8gneVX3mB9+Lx4SAP5z5WHq9tH/NwlppOpO/V8XhlRRbXC9/LX3Nh3qV3vfNq3WJRut6WkiYrcXtD5jUy74OsLIulb3NxPZde4c4frfd3cXXe3bpH2KSbDnNxAUslgqdtzxFkiyjxZdkyvaC1H+aVce0/fIpDB+VstgqvLJ9m2ZVB2Ho+B9Jhayv5jCC+yWb3cXVbJ/Vyim3mxyXOjV98YXlY1z/tO7x6e28X6bC31UKyRt6nMYcuLYdZ+0mdUF3xfNoL+aOwczcVX1FWC3MRTOKy/YMeCLQN/tReD0jipZaECOJkMp0kSzlgeVX95H8VPWc3CP2ojq1oFPVPs7GOe5xnqw7z6mg2uiMISfmnyeceA6+mC5qi+E1XY/gjSurZWjjxznHqVRc/rKyhcp8nzVlYUEk/eJcSCz6S2Vx+ldPyS9vmdFyZB/NWN96dz+IUObeJdr3ssvU0hKY/bNubIQV2EVzXDmd3ok+THpgl9AjKXzbzy09NmYfbU5ppCWvHWT65a+fPxnka+dj8VibFnll91gz6KR3/H/1dD1qlubYgIr8S648Oguy1nuBGrAEL7bW2246i2/wemqV/0QBRq2KgB+LRwjV4iynpaltJ7xzEX86jXfOy/7RopkuzatqLRuXj9g0YFzpPH3dUNsraaq3DyGlk0sXTp/ORMAU/zUumwhatPYyWOix/xz3WNOnrYqwPyRWfJvvA88KFcNdWkLbXyTvyEl0X7Y99nYo5CUtK42y2HfNnQhMCQOKT8mliHryX7liPIKCiX3kLxCeNM5pRqnEbBW67qm7RgKMq4UqqqwzlhuvAd+y4We+qEVwkoh+JD427o170iftSFDBA5q2E85Ym8cbIBp5jFJeUB5bmDaMc+1HCP2jEXd85jx/C1PlBTzzfuhQ4PePNOiz4SyNZrYRB1tIQLQE+0WykcTgJw6cw9KkNh9EXlxmuknVpbdTLFrrkJaICpWHBk9fNKw8NL+NzoRJUQQAZJNkO6rTtqNJ2fhhV9Tj4d1ZAZ8xEgtJRTNn6XKdREKRewvYjOl2KJW7sD8tjdmVsjzTKiYxPupBF6bt4fHUQFPDP6FjlRPiDY9Skxjsn4fgDe2D55PhwSmPmqeVb3McllTGugy+l4tIvUnq9bNOS4QKrhG6lQZr8ifNiduFDgZIpsrKa5WswUVSV/9nX14D2gxUI6ZPEHCJwuw0xwt4T/mTOM8oYVXhbSW9rRYMYZwFGwgI0n/xN9JFFsaCepQuVhjaNjP+XCX8o3GpCGKjNbNfm46FfsDAEqAXWViM30lSJ2ImoBPD48TtsnXDXMrceomDW2sK5ExvIYGOJbtOzQ8xqKskgndB2O6gonxsGwScgS4Rt/1J7AbTwdEO5pM693eQCYqHw6c/VTlvVhdZf8cPQTJiiW9guAG3bohni26Scq/Ds8oJEuhVBFi9LGZj6tV9mJRzoy92xhU64RfYa19PP50yhPnecB6Vu5AVF25he4zpqNDhnV6mRgAkV1nYV5uKTG3XYpfUJTUmjMtviRDu+uEoozMYJYLDz9cXUzu02IQDM1JZ+GL57Yi4ApWAMXzQfidGX2GJvMyOdECTtI/BoINpIWGRLyUWjYy4X5QEdQxomSBsSFm+zyZfgMc4fm5545oc/8brVYeZUfAG/F+WFFnfRfrq3fJFuQkVR7y57squXBWRewfDNC+0aOtO/7sxrCVnWM+ct66KvgXuZVatCxqQJ7C8/jiv7b9+xI4GHn/ypqus6pcbXui9MUsE0XL7fFdDi/uWNYtGOAzgCi4KGhL2RrwC7Caos2V5/0VRt1mFPMLxhLZi6lb/Z4iTDbjFRHvYan8fzp/4dczDc+M0NYNe11WHvM82EUjBG4Cs+C1VCd/hq2uw/1B7ErVUYf9fu07tBbKMrEHNjoUL91LhbKhvcLf3h2p5fRDvV9gKSsIYFsAQkCsrDlmFmgoUUmmq0aDGuvghnMboMe66LR1rigzvLngzOdPFVhvLcDuzFtyyMpMp595P3xATm0YAnsY9fEPvOKV/XdrG/XbSpErA+iyDwrgr6ycLKv/nzIwILh2vGFH5My2zkOLKhJ+iehg5DNS2La5i1vAdr4bY4u+a6k+0oaZIwI0HrQPmjAltrobDng/ps1ApUubqs4spWADy18PoX13ovauMMkYRtbQNmuGe59U7RuhgLCGokpgskKxFX5RcFmuUQ9XZzrV2hbX8YV8WAfC/TzrDuS0zpQrb8smIdvzWstAzrsGS5kjcJPmY6jKD2OXE+GnoDN08VKv3BwVv3kZQBdGsAk77R5G4AH17RYcGlOULN6OJOjLeA89xSwZpZptISlad9SzaHzlo/lWE93SZrLZ5JWD+mz4+ma8tMu7ZCGtUUZvnokm84KxFUzMbisNhji86m3kNs0kecGY/ifUdlQ8XcLoMokIU9fubBb0RNaswfB01piLgXaBZwrNyWla29DmOCkjKh2fOic+HSKuudQbYJPPOHFrVrDowuYxXspqjoeZkaj2LBSayEnZUXdOoEKqz18r6Emc3N7qyF4jeL2vHwTuLUmLiHI8tsDjmsev5S8CXFJ8qml74BcgJXdJilwI0uQpEwgylYSpWVM1AymHRVgbrDgRWv28y/eOBGflwvz3yQpLgrvocGLXpQ6HLWc/HsREldhWEBoxHf/Ltt2GuBWxr5mUFXbUr6nSqXy9P305KgO2M92/ww5rOEUQP06cxkx+Dx8txXrFhe4DukCZrUIm21PjRagy55iaRzbZsAD5B6fkxdp5v+kabUD1qkrBZa1nToohZPk+FSNqtnQWtR8z23kLP4kcbt4ZJwL17ecoYilrCtq5W/4OkshMBcQEOGKeBeFR61evZ9WXz/1z0LJs8efP37cptpRNPwrOgwxg3xfbavh3BhEtIzoqdvWk3uzo+pIjzAenxqWdYMNamfSjzwvCIrnl7jOPTr5DGpk+RTf9AmZorV8g7zMPpR3Va3cZZlnmuvyaUi7iph/3i15mY1R9Pll1d5iePm2zycBCVkWpm8DOeJActsiyUyKJCGBJZs5KKxnkP2Or6dJxAxNkORUQVza1JNRVmW29eoogLvoMMy6jPkxsOFD0Lap7I9znhUOd27qeVXsb+5y6NJu1giU1S31HJBiL0J13MbOWX4XFBh1MI7ab2I8G3DVPIt5XN50Xw6ZEHgE7eL+yqpg4r+pp/mEyLzLajIdGp2kC9Brfs6HRY81VDJfmOglBs+cY0nG3lRGYr0t0tD1IHta28FiSmFuhc0riGAYAS4zzbfdxUmJI9V9VQ+PT3BS7q+XpOhQRLWpYIRPJh0+skCm2UO/QcRa8oLG2rUIG1aG3T3PB2QgIYO+3dZUGfX28JMdMOFC97U7Wyjcx5C5G+7wa55iS+/rmi16pAiL3yrsXPRMFpR8HS9fM+tZmvF3awvmrVQb+Bz7t7ah/b42cYLatjkd3zqdgtFUk7H2zYj6/K56YcRNCj907M3kP9rN/G1EyhG1ORJAntiYxmQhF2sXiUvEXaz5hQABsvihilqajzQWdvaClLETe1wAAHRFNA1uD9QA7sNq6TKE9lavcIdXluckZrUf7j/CIW2oaR3ztOBB/WpFuG+PrVkc9xJ0z/1yPqBfotogNu2ARr4/osOVZyBVN6Qw+dnpf+IGvdYLkQbKuyaHnz9hDZ8srstbKfDFvPy4p6quw8YwnX9SGkCdbKojNyqTGBRFX/a1SKyINYbapZfs6J2i1ktwQWsqc+448VjLHFyj4Q8KKYfG58uNa6rOqxAeaYm53AVeO1z0/+a7CN4wnhruD258jN44J2a1EMhndmpgtEH6nmdWC4J2C2NbvoQX+29kxMMz3VJTixUzNs6zOh85hl75axc0JJFdrMJ3rlQJhwwr536P05n2nKHaNLa9ofFsxlK/kMt/o+a2jmLeM4V1TScGAeyixYhqXaxxNKf5dMVJNj2rIZ5FQ4eocSvzvl2KudxdwDAxBK3VU7IidFhWRrZy0TpzyWMwtVmyzqGTDBBo1GaWPPTlu/HA/tYeREHGx6YoYjt3TcljMQYBU3tC07e3tOhCtyTDmsF6slzuwpmwPVFDQ1u2taAfC4GRbCo/HlUB9Bq7EpvaGbcNjrMnK90LuxZ0PLOTxJk84TpuqGNvRR1Pr/gKN/18w4Ja2kmo/G2d059UZ6fkmubUqd9dLto1clQCzijhwp3d+PVToehFOxXXaEqB5Xv11H9mKQUYpt/PKNW7M5E8VDB50K/GZKwLWnZKLvZ01loLijw+d0uigQXOD/K11GYboB81nW4Blg3K5WCnu1KecxPnn3MG2qI8RUZDPQCXm9xsxbyJkacx5z9sA6RjvxiuQCoiCA+VnvgXue6yk2oCY+Niiqdt7USxjP22Z21zOsWGirb9DStcTTpVgUGvxsRIM5syE1z7r1tq+i44pZGA1oP2xZcUrdvUFxTF2Cj8hPshbkmbQwSNq91G2mX04FbtqWE05li+OUu9bbDesaN5PMWbffXsg7bmtzkPVsTG7dsE1pgHd/jZByvxGXZ/u+Gie5yOkeQpiR8T1t6tGHKrlQKPOXZs6Xe1SCMcbfw2LjWUeLcrERz1mYldYsFN7NsnzaQ+7f7sfQG9TREHcbYQuXZRsvArh41a0Z5u/e16RwiTKS+dKYm4rbeVL6iKb3s9lpQo8zrKHsjQdQZiTodZE/wflBeF+aKmv5ukVJDjubDXMGWHnpy6lrqMApN8zvJBVuUQtU0AvAe0qM+X2puU7i20TIvEU07V1gqjkbvyifb2/S/QmhuAzK+G69shGKJW10YsknNFoq3Llw3wAWQUOVv09glHeL4sEb/Nm39J9MYxM7v0ovTzWOoKaeDS6sJvj6tDRHODAmnMqeH5Ic0cGwyy1jx+RHgUVxQn28Hs8/7GNVK7BhLvI6ccz+Of8ZxVlzRx/LyKee29K0MXNfD7nw2xSD5IP8fTzzJPNhi6+WIrMR2Oow8tqT0Cupro2d8/8zNL775Ii68nAIq8xvxjUdGQuehnm/phSWxadsfRgZleM0jBBsNf+xMFlW+NBWS2vYsRMu7sf2e0zKnI6fBKzGnQjeqR9Lo9kcDz/ePAnv//dzuW0mHbTWw4IfZ6kHNyjNnBL1RTwDaO9Ib1DP8+7GGIRLNgj2wSvgT9LwgH9NGfHcJXOlS3Jwf2RycgJL/8fgpRs3Mhw153A+EvxA+FHaHYB3psK2+Z79QEXewElGuht9hGZIs5U8hWwvRY3mfZ09PZTaPenF/IDCB603xPG/6sV2HochtXTHDDAmOtEA1UdiSNJphMWRvlqplX0s2P2Qeyta2ifGoY9V8Y6P6QjvPjQAvshrhnt+54rKvAZfYqu+K+viJ+XhUAHtsMf6NPX+CBh2mk0+mxiYCuvtttc1L3mcLgHg+D8L4XfMIzCKKeAheYNa5eo/ndfxuFj30/kzfJ3+2FAGe4GeLCOR1lPj+Df3wEOmy5m4HN/OTNKVEDsvVrE/0X+b7re51BlWKaLx5OzrqsDypfzwmj0kS3+Xcr+tlGSeSFVkJ9VXeXwUw7vmt3sTa7WconKTepJdzWIlbdVhWz+tpwR2uaW0Sn4ubxAyzpA4yJ03+LNqxeHZLblzjWrc10lTe7YO3NB3fM26m+Y15XM4fVz7v9ivCOJ4NtN4KLr5d77BX4V6WbiZrTKFSzos4yLM1XZ9rgVp2tkx3APPE5poS/z28zgfiu97sFEWJO21UoWAxJ7S7/TKucPLVeuFtGDwV/P30bW1TzVZBibeJAvUE6bAu/WHcx0bMemhgi5sn5BWFxwNHXZMjEGSN/PfNSftw4bbrMHzYbgDUnWyeRTl/Iciy7NPEeJeLerfl1Ax3yrRvYtziflsiUND9ycEPayvgXO69QjbyVh02KLClV3TYCEDCRrQSXerfa1/B1rL82DtVg515iQNDOqxLXmLv4Hkv+yIjQmb0eO35EiRhAvd+3DpsDe7ylAedJIyyCrbrsGHpqMP6B3VcbJVZDjZsjqYPjZAOQ4kn3dLxD2GfvMQlFtOoWTqZSjkcZWkd1t4PGwC0qCP2zizzumWM8+CQHyagw26/hA5rOMcrOqzTND5XkLBT1mH/IOGbokAjQDqs9fylfSNnJY7nh7k9+GE20jFnReK28lf9MAlLaQZ1SZ2gDuuSxnQgZCUe6IfR3MlNGQs6SRj1pErqMErEEZw4nuat3534MRysw+x2g760mksRZ/fTYFT4FDO34m4hYQEUKQ/NMu+mX/bHtT9nwTX9ou28BBkFVmk3D4orLwg8OnhfZtRvhL+L/2Yjfq1+1PXjjzjkTs2k9nG8uk3qx8YP7Zn/SZeh4riMxbuXi479sKVGjN9OV28wB83X0I/dmGGD8wsaZ+P3LqB9vgISSXuIovW3dtY6Ki/zl/7Q7zXgLSusObbwDu2BVdwXmseErMRs3Zda6Nqa4K30bi/wPH6JHu7iPZ53yQfot/1S7/LFu74svOvZ2wn3Bf88Oo7zV7xh//M3z3bMf7wTG/P/5qd5ZP6/fIqfsvscn/L+0pHZlxRh1vi++X+voFkASrx3dqjMiziOKx+/DKGXZw/FVVa+5tnsUBnmZZbF5ezARn7SWPr49s908X3xJEnSqOJNml91+sqbfhrFPk2tFvt1FFfJj+h3SnnV+HmfRu92k37o19vFBZ6aPfKWgugdcsNHnTdsmG3z326swD3lm9mt2YvMUMZVXaFAmPiP3SDCMMvDZ5zqyR5g7uKbqizDKqQpDEAdmuN/aj/MQVHkZVX5ZUHV6NLz0KDcZVnBO/STP81Ohu+afQlR35ZZ6IfVAz4f4hv4GE/iHd3WfhWGcV1VtY+LrPFCHN/wO1bAiyusO4a7wAU84eFtoo6chPuwHfN5/v35V+3X6eJIgzrCp58ffZ+m8LZfgHaRppJ49n0q1NknbiOHahJIsTed3OI3vhYfXTN9H62CGNXPnx9+yhNUKKPSwlPDc++ZNObR0g9PNFmAM43LB/xUsPJoj7KoHh6eHv7saBoUZU/MjDtgsardDNJlySRZLGlCpPXsjVFd/yDTj+bgoMmEIrPJ5qDZ/JFUr3H9mCT+Y31DR1tY7v23ez4ZtRAx/KIvn7DaMS/hrkN+9SfdU5okybs5PBqdBJumFsLPRQqLosH584V5pcG5/Us0X4Bl4jgf589vTorf9nP4ucCPg+/lr7bHPs75LThC3/BxPnuX+dSnj9OsR/TO+QHzXfjI/CeiUWGNn7fHyo+iaAqDzK8TWAFQkZV/W91OcOB28Q/G2bOTNA9F9Okoqp0owmdu+VP2H/2YLfNl+Eev4yeJzHHzz/xMH8n6sG+wP7ewhPA7hn35EPN+CLsyKzN4P2X8FNLbycogU4f/xxm/LYxj7Nzl9Cu7g2PFf7O78r4o8BfHcxiuOGCP00fzv7+uYVN5AQy3nH74ffDO6N30AbxEP2Ske152d81bfIgP0ysQmZmvQMeMEG0lnpqJ5CeTqR+GNQoy9CPamkBCqQjC8KmC1Nvp5umHZIaIa/N3ifz619Wv4rr4VXiwMOld96V5hb6qzO9xW2EFMz0vPJiS9pUWwJCzWwYyGYk4sRsMvIEH+psV/McAe5ZK1EPp2yOWPLcba8jhplz+IpP2unzC5x4K/soSh8jahdPCFnRc4j7hONsPlTleyq+wmeX5Fd5ZZNe/Lsklwuf+evgHm5l+sQdETk7Bu5e/+C14Zw5/iApn/j78xjXwxy+xhf8BvUAukT2AV4yLZQ7wB+DZzffoddd1Pfh0qCT/8J89UBNfIA/Z5TAUO74w63nJJXsIR1Arr1/wfS8efcge5d/4Y7bsl5kd+gk87DQP4I/n8RuBOcJHP9HcN9vr5k2lb96fgz68Dygmi92z12DDFOZ6KL9wAR9qBX2FeSZzUMaeWNfKMaNlonTG5s8ryulwdvb/AVQqLee75pnlAAAAAElFTkSuQmCC;" parent="wvYD6DcHS2W4OUJYqL-E-27" vertex="1">
          <mxGeometry x="4.690000000000055" y="60" width="110.62" height="50" as="geometry" />
        </mxCell>
        <mxCell id="wvYD6DcHS2W4OUJYqL-E-30" value="" style="edgeStyle=orthogonalEdgeStyle;rounded=0;orthogonalLoop=1;jettySize=auto;html=1;dashed=1;" parent="1" source="wvYD6DcHS2W4OUJYqL-E-23" target="wvYD6DcHS2W4OUJYqL-E-26" edge="1">
          <mxGeometry relative="1" as="geometry" />
        </mxCell>
        <mxCell id="wvYD6DcHS2W4OUJYqL-E-23" value="burning conditions wait" style="ellipse;whiteSpace=wrap;html=1;aspect=fixed;dashed=1;fillColor=#f5f5f5;fontColor=#333333;strokeColor=#666666;" parent="1" vertex="1">
          <mxGeometry x="480" y="400" width="120" height="120" as="geometry" />
        </mxCell>
        <mxCell id="wvYD6DcHS2W4OUJYqL-E-24" value="" style="endArrow=none;html=1;rounded=0;strokeWidth=3;" parent="1" edge="1">
          <mxGeometry width="50" height="50" relative="1" as="geometry">
            <mxPoint x="600" y="520" as="sourcePoint" />
            <mxPoint x="570" y="490" as="targetPoint" />
          </mxGeometry>
        </mxCell>
        <mxCell id="wvYD6DcHS2W4OUJYqL-E-35" value="" style="edgeStyle=orthogonalEdgeStyle;rounded=0;orthogonalLoop=1;jettySize=auto;html=1;" parent="1" source="wvYD6DcHS2W4OUJYqL-E-32" target="wvYD6DcHS2W4OUJYqL-E-1" edge="1">
          <mxGeometry relative="1" as="geometry" />
        </mxCell>
        <mxCell id="wvYD6DcHS2W4OUJYqL-E-32" value="&lt;font face=&quot;Times New Roman&quot;&gt;Extinguish&lt;/font&gt;" style="whiteSpace=wrap;html=1;aspect=fixed;" parent="1" vertex="1">
          <mxGeometry x="120" y="600" width="120" height="120" as="geometry" />
        </mxCell>
        <mxCell id="wvYD6DcHS2W4OUJYqL-E-33" value="" style="edgeStyle=orthogonalEdgeStyle;rounded=0;orthogonalLoop=1;jettySize=auto;html=1;" parent="1" source="wvYD6DcHS2W4OUJYqL-E-14" target="wvYD6DcHS2W4OUJYqL-E-32" edge="1">
          <mxGeometry relative="1" as="geometry" />
        </mxCell>
        <mxCell id="wvYD6DcHS2W4OUJYqL-E-34" style="edgeStyle=orthogonalEdgeStyle;rounded=0;orthogonalLoop=1;jettySize=auto;html=1;dashed=1;" parent="1" source="wvYD6DcHS2W4OUJYqL-E-14" target="wvYD6DcHS2W4OUJYqL-E-23" edge="1">
          <mxGeometry relative="1" as="geometry" />
        </mxCell>
        <mxCell id="wvYD6DcHS2W4OUJYqL-E-37" value="Burning can be affected by many parameters, and varying burning times can be generated using the Monte Carlo method." style="rounded=1;whiteSpace=wrap;html=1;" parent="1" vertex="1">
          <mxGeometry x="294" y="750" width="186" height="100" as="geometry" />
        </mxCell>
        <mxCell id="wvYD6DcHS2W4OUJYqL-E-39" value="" style="shape=flexArrow;endArrow=classic;html=1;rounded=0;" parent="1" edge="1">
          <mxGeometry width="50" height="50" relative="1" as="geometry">
            <mxPoint x="513" y="760" as="sourcePoint" />
            <mxPoint x="513" y="670" as="targetPoint" />
          </mxGeometry>
        </mxCell>
        <mxCell id="wvYD6DcHS2W4OUJYqL-E-40" value="We have a 2D simulation space, which means that the spatial pattern is crucial for burning conditions." style="rounded=1;whiteSpace=wrap;html=1;" parent="1" vertex="1">
          <mxGeometry x="490" y="750" width="186" height="100" as="geometry" />
        </mxCell>
        <mxCell id="wvYD6DcHS2W4OUJYqL-E-41" value="0" style="whiteSpace=wrap;html=1;aspect=fixed;fillColor=#d5e8d4;strokeColor=#82b366;dashed=1;" parent="1" vertex="1">
          <mxGeometry x="360" y="1000" width="80" height="80" as="geometry" />
        </mxCell>
        <mxCell id="wvYD6DcHS2W4OUJYqL-E-42" value="0" style="whiteSpace=wrap;html=1;aspect=fixed;fillColor=#d5e8d4;strokeColor=#82b366;dashed=1;" parent="1" vertex="1">
          <mxGeometry x="440" y="1000" width="80" height="80" as="geometry" />
        </mxCell>
        <mxCell id="wvYD6DcHS2W4OUJYqL-E-43" value="1" style="whiteSpace=wrap;html=1;aspect=fixed;fillColor=#f8cecc;strokeColor=#b85450;" parent="1" vertex="1">
          <mxGeometry x="440" y="1080" width="80" height="80" as="geometry" />
        </mxCell>
        <mxCell id="wvYD6DcHS2W4OUJYqL-E-44" value="0" style="whiteSpace=wrap;html=1;aspect=fixed;fillColor=#d5e8d4;strokeColor=#82b366;dashed=1;" parent="1" vertex="1">
          <mxGeometry x="520" y="1080" width="80" height="80" as="geometry" />
        </mxCell>
        <mxCell id="wvYD6DcHS2W4OUJYqL-E-45" value="0.5" style="whiteSpace=wrap;html=1;aspect=fixed;fillColor=#F5DDD0;strokeColor=#666666;dashed=1;fontColor=#333333;" parent="1" vertex="1">
          <mxGeometry x="520" y="1000" width="80" height="80" as="geometry" />
        </mxCell>
        <mxCell id="wvYD6DcHS2W4OUJYqL-E-46" value="0" style="whiteSpace=wrap;html=1;aspect=fixed;fillColor=#d5e8d4;strokeColor=#82b366;dashed=1;" parent="1" vertex="1">
          <mxGeometry x="360" y="1080" width="80" height="80" as="geometry" />
        </mxCell>
        <mxCell id="wvYD6DcHS2W4OUJYqL-E-48" value="0" style="whiteSpace=wrap;html=1;aspect=fixed;fillColor=#d5e8d4;strokeColor=#82b366;dashed=1;" parent="1" vertex="1">
          <mxGeometry x="360" y="1160" width="80" height="80" as="geometry" />
        </mxCell>
        <mxCell id="wvYD6DcHS2W4OUJYqL-E-49" value="0" style="whiteSpace=wrap;html=1;aspect=fixed;fillColor=#d5e8d4;strokeColor=#82b366;dashed=1;" parent="1" vertex="1">
          <mxGeometry x="440" y="1160" width="80" height="80" as="geometry" />
        </mxCell>
        <mxCell id="wvYD6DcHS2W4OUJYqL-E-52" value="0" style="whiteSpace=wrap;html=1;aspect=fixed;fillColor=#d5e8d4;strokeColor=#82b366;dashed=1;" parent="1" vertex="1">
          <mxGeometry x="520" y="1160" width="80" height="80" as="geometry" />
        </mxCell>
        <mxCell id="wvYD6DcHS2W4OUJYqL-E-55" value="" style="shape=flexArrow;endArrow=classic;html=1;rounded=0;" parent="1" edge="1">
          <mxGeometry width="50" height="50" relative="1" as="geometry">
            <mxPoint x="500" y="1100" as="sourcePoint" />
            <mxPoint x="550" y="1050" as="targetPoint" />
          </mxGeometry>
        </mxCell>
        <mxCell id="wvYD6DcHS2W4OUJYqL-E-56" value="&lt;b&gt;Spacial pattern&lt;/b&gt;: The wind speed and direction can affect the &lt;b&gt;NEXT BURNING &lt;/b&gt;grid&lt;b&gt;.&lt;/b&gt;" style="rounded=1;whiteSpace=wrap;html=1;" parent="1" vertex="1">
          <mxGeometry x="580" y="1110" width="186" height="100" as="geometry" />
        </mxCell>
        <mxCell id="nbGUWYCDDWxUKJxJjR_P-1" value="" style="endArrow=none;html=1;rounded=0;" edge="1" parent="1">
          <mxGeometry width="50" height="50" relative="1" as="geometry">
            <mxPoint x="320" y="450" as="sourcePoint" />
            <mxPoint x="370" y="400" as="targetPoint" />
          </mxGeometry>
        </mxCell>
        <mxCell id="nbGUWYCDDWxUKJxJjR_P-2" value="" style="endArrow=none;html=1;rounded=0;" edge="1" parent="1">
          <mxGeometry width="50" height="50" relative="1" as="geometry">
            <mxPoint x="680" y="450" as="sourcePoint" />
            <mxPoint x="730" y="400" as="targetPoint" />
          </mxGeometry>
        </mxCell>
      </root>
    </mxGraphModel>
  </diagram>
</mxfile>
